<svg width="50" height="50" viewBox="0 0 50 50" fill="none" xmlns="http://www.w3.org/2000/svg">
<path d="M45.1168 10.1612C45.8122 9.32348 46.1686 8.25572 46.1158 7.1683C46.063 6.08087 45.6049 5.05265 44.8317 4.28624C44.0056 3.46254 42.8866 3 41.72 3C40.5534 3 39.4344 3.46254 38.6083 4.28624C38.464 4.43496 34.328 8.56571 34.416 8.47683L32.8575 10.0397H13.56C13.4442 10.0397 13.3296 10.0626 13.2227 10.107C13.1158 10.1514 13.0187 10.2165 12.937 10.2984L3.25696 19.9785C3.0931 20.1439 3.00081 20.367 3 20.5998V44.36C3 45.0602 3.27814 45.7317 3.77324 46.2268C4.26833 46.7219 4.93983 47 5.64 47H44.36C45.0602 47 45.7317 46.7219 46.2268 46.2268C46.7219 45.7317 47 45.0602 47 44.36V12.6797C46.9987 12.1132 46.8148 11.5622 46.4755 11.1085C46.1363 10.6548 45.6598 10.3226 45.1168 10.1612ZM35.039 10.3442L36.2842 11.5885L14.9627 32.9093L13.7184 31.665L35.039 10.3442ZM12.5225 32.9604L14.3397 34.7785L16.1586 36.5974L9.79272 39.3255L12.5225 32.9604ZM17.4505 35.4015L16.207 34.1519C19.5088 30.851 34.8454 15.5134 37.5286 12.8302L38.7729 14.0754L17.4505 35.4015ZM40.0172 12.8337L36.2842 9.09988L37.8946 7.48946L41.632 11.2225L40.0172 12.8337ZM43.5874 5.52969C44.0823 6.02477 44.3603 6.69615 44.3603 7.39618C44.3603 8.09622 44.0823 8.7676 43.5874 9.26268L42.8719 9.97724L39.139 6.24514L39.8526 5.53057C40.0978 5.28524 40.3889 5.09063 40.7093 4.95785C41.0297 4.82507 41.3732 4.75673 41.72 4.75673C42.0668 4.75673 42.4103 4.82507 42.7307 4.95785C43.0511 5.09063 43.3422 5.28524 43.5874 5.53057V5.52969ZM12.68 13.0414V19.7198H6.00432L12.68 13.0414ZM45.24 44.36C45.24 44.5934 45.1473 44.8172 44.9823 44.9822C44.8172 45.1473 44.5934 45.24 44.36 45.24H5.64C5.40661 45.24 5.18278 45.1473 5.01775 44.9822C4.85271 44.8172 4.76 44.5934 4.76 44.36V21.4798H13.56C13.7934 21.4798 14.0172 21.3871 14.1823 21.2221C14.3473 21.057 14.44 20.8332 14.44 20.5998V11.7997H31.0975L11.2298 31.665C11.1505 31.7444 11.0872 31.8382 11.0432 31.9413L7.312 40.6525C7.25462 40.7864 7.23136 40.9324 7.2443 41.0774C7.25723 41.2224 7.30596 41.362 7.38611 41.4836C7.46626 41.6052 7.57533 41.705 7.70354 41.774C7.83175 41.8431 7.9751 41.8792 8.12072 41.8792C8.31411 41.8612 8.50243 41.8071 8.676 41.72H34.68C36.0803 41.72 37.4233 41.1637 38.4135 40.1735C39.4037 39.1833 39.96 37.8403 39.96 36.4399C39.96 35.0396 39.4037 33.6966 38.4135 32.7064C37.4233 31.7162 36.0803 31.1599 34.68 31.1599H28.52C28.2866 31.1599 28.0628 31.2526 27.8977 31.4176C27.7327 31.5827 27.64 31.8065 27.64 32.0399C27.64 32.2733 27.7327 32.4971 27.8977 32.6621C28.0628 32.8272 28.2866 32.9199 28.52 32.9199H34.68C35.6136 32.9199 36.5089 33.2908 37.169 33.9509C37.8291 34.611 38.2 35.5064 38.2 36.4399C38.2 37.3735 37.8291 38.2688 37.169 38.929C36.5089 39.5891 35.6136 39.9599 34.68 39.9599H12.783L17.1768 38.0767C17.4302 37.9694 17.4945 37.8259 18.0744 37.268L43.4184 11.9238C43.4651 11.8848 43.5097 11.8434 43.5522 11.7997H44.36C44.5934 11.7997 44.8172 11.8925 44.9823 12.0575C45.1473 12.2225 45.24 12.4464 45.24 12.6797V44.36Z" fill="#202327"/>
</svg>
