<svg width="42" height="40" viewBox="0 0 42 40" fill="none" xmlns="http://www.w3.org/2000/svg">
<path d="M41.4223 15.2439L36.4225 10.2442C36.2662 10.0879 36.0543 10.0001 35.8333 10H26.6667V2.5C26.6659 1.83718 26.4023 1.20172 25.9336 0.733032C25.4649 0.264348 24.8295 0.000723496 24.1667 0H2.5C1.83718 0.000723496 1.20172 0.264348 0.733032 0.733032C0.264348 1.20172 0.000723496 1.83718 0 2.5V32.5C0.000723496 33.1628 0.264348 33.7983 0.733032 34.267C1.20172 34.7357 1.83718 34.9993 2.5 35H5.85444C5.84194 35.1374 5.83333 35.276 5.83333 35.4167C5.83333 36.6322 6.31622 37.798 7.17576 38.6576C8.0353 39.5171 9.20109 40 10.4167 40C11.6322 40 12.798 39.5171 13.6576 38.6576C14.5171 37.798 15 36.6322 15 35.4167C15 35.276 14.9913 35.1374 14.9789 35H25.8544C25.842 35.1374 25.8333 35.276 25.8333 35.4167C25.8333 36.6322 26.3162 37.798 27.1758 38.6576C28.0353 39.5171 29.2011 40 30.4167 40C31.6322 40 32.798 39.5171 33.6576 38.6576C34.5171 37.798 35 36.6322 35 35.4167C35 35.276 34.9913 35.1374 34.9789 35H39.1667C39.8295 34.9993 40.4649 34.7357 40.9336 34.267C41.4023 33.7983 41.6659 33.1628 41.6667 32.5V15.8333C41.666 15.6123 41.5782 15.4005 41.4223 15.2439ZM9.16667 1.66667H17.5V7.8182L13.7061 5.92122C13.5903 5.86342 13.4627 5.83333 13.3333 5.83333C13.204 5.83333 13.0764 5.86342 12.9606 5.92122L9.16667 7.8182V1.66667ZM10.4167 38.3333C9.8398 38.3333 9.2759 38.1623 8.79625 37.8418C8.31661 37.5213 7.94277 37.0658 7.72202 36.5328C7.50126 35.9999 7.4435 35.4134 7.55604 34.8477C7.66858 34.2819 7.94637 33.7622 8.35427 33.3543C8.76217 32.9464 9.28187 32.6686 9.84765 32.556C10.4134 32.4435 10.9999 32.5013 11.5328 32.722C12.0658 32.9428 12.5213 33.3166 12.8418 33.7963C13.1623 34.2759 13.3333 34.8398 13.3333 35.4167C13.3324 36.1899 13.0248 36.9312 12.478 37.478C11.9312 38.0248 11.1899 38.3324 10.4167 38.3333ZM25 30C25 29.5 25 30 25 30.2441C25 30.4882 25 30.6123 25 30.8333C25 31.0543 25 31 25 31.4226C25 31.6667 25 32 25 31.6667L25 33.3333H14.494C14.1112 32.581 13.5277 31.9493 12.808 31.5081C12.0884 31.0669 11.2608 30.8333 10.4167 30.8333C9.57256 30.8333 8.7449 31.0669 8.02529 31.5081C7.30567 31.9493 6.72216 32.581 6.33932 33.3333H2.5C2.27907 33.333 2.06728 33.2452 1.91106 33.0889C1.75484 32.9327 1.66695 32.7209 1.66667 32.5V31.6667C1.66667 32 1.66667 31.9895 1.66667 31.4121C1.66667 30.9895 1.66667 31.221 1.66667 31C1.66667 30.779 1.66667 30.5721 1.66667 30.3162C1.66667 30.0602 1.66667 29.5 1.66667 30V28.3333H13.3333H25V30ZM25 28.3333H13.3333H1.66667V25H25V28.3333ZM25 23.3333H1.66667V2.5C1.66695 2.27907 1.75484 2.06728 1.91106 1.91106C2.06728 1.75484 2.27907 1.66695 2.5 1.66667H7.5V9.16667C7.50016 9.30866 7.53658 9.44826 7.60579 9.57224C7.67501 9.69622 7.77473 9.80047 7.89551 9.87513C8.0163 9.94978 8.15414 9.99236 8.29599 9.99883C8.43783 10.0053 8.57898 9.97545 8.70606 9.91211L13.3333 7.59847L17.9606 9.91211C18.0877 9.97547 18.2288 10.0053 18.3707 9.99887C18.5125 9.9924 18.6504 9.94983 18.7712 9.87517C18.892 9.80051 18.9917 9.69625 19.0609 9.57226C19.1301 9.44827 19.1665 9.30866 19.1667 9.16667V1.66667H24.1667C24.3876 1.66695 24.5994 1.75484 24.7556 1.91106C24.9118 2.06728 24.9997 2.27907 25 2.5V23.3333ZM30.4167 38.3333C29.8398 38.3333 29.2759 38.1623 28.7963 37.8418C28.3166 37.5213 27.9428 37.0658 27.722 36.5328C27.5013 35.9999 27.4435 35.4134 27.556 34.8477C27.6686 34.2819 27.9464 33.7622 28.3543 33.3543C28.7622 32.9464 29.2819 32.6686 29.8477 32.556C30.4134 32.4435 30.9999 32.5013 31.5328 32.722C32.0658 32.9428 32.5213 33.3166 32.8418 33.7963C33.1623 34.2759 33.3333 34.8398 33.3333 35.4167C33.3324 36.1899 33.0248 36.9312 32.478 37.478C31.9312 38.0248 31.1899 38.3324 30.4167 38.3333ZM40 30H38.3333C38.1123 30 37.9004 30.0878 37.7441 30.2441C37.5878 30.4004 37.5 30.6123 37.5 30.8333C37.5 31.0543 37.5878 31.2663 37.7441 31.4226C37.9004 31.5789 38.1123 31.6667 38.3333 31.6667H40V32.5C39.9997 32.7209 39.9118 32.9327 39.7556 33.0889C39.5994 33.2452 39.3876 33.333 39.1667 33.3333H34.494C34.1357 32.629 33.6011 32.0295 32.9422 31.5933C32.2833 31.1571 31.5226 30.8991 30.7343 30.8443C29.946 30.7896 29.157 30.94 28.4441 31.2809C27.7312 31.6219 27.1189 32.1417 26.6667 32.7897V11.6667H35.4883L38.8216 15H30C29.779 15 29.567 15.0878 29.4107 15.2441C29.2545 15.4004 29.1667 15.6123 29.1667 15.8333V21.6667C29.1667 21.8877 29.2545 22.0996 29.4108 22.2558L31.9108 24.7558C32.0671 24.9121 32.279 24.9999 32.5 25H40V30ZM40 23.3333H32.845L30.8333 21.3216V16.6667H40V23.3333Z" fill="#202327"/>
</svg>
