<svg width="40" height="44" viewBox="0 0 40 44" fill="none" xmlns="http://www.w3.org/2000/svg">
<path d="M37.414 18.8863C37.2461 15.3572 35.9768 11.9693 33.7843 9.19876C31.5919 6.42818 28.5865 4.4141 25.1905 3.43949L25.153 3.43013L25.1774 2.94519C25.1959 2.56551 25.1371 2.18602 25.0046 1.82972C24.8721 1.47342 24.6687 1.14772 24.4066 0.872351C24.1446 0.596985 23.8293 0.377685 23.48 0.227737C23.1307 0.077788 22.7546 0.000311972 22.3745 2.13921e-06H16.9447C16.5638 -0.000467909 16.1869 0.0765294 15.8367 0.226312C15.4865 0.376095 15.1705 0.595533 14.9078 0.871284C14.6451 1.14704 14.4412 1.47334 14.3085 1.83035C14.1759 2.18736 14.1173 2.56762 14.1362 2.948L14.1605 3.43294L14.1221 3.44324C10.7261 4.41776 7.72081 6.43184 5.5285 9.20246C3.33619 11.9731 2.06707 15.361 1.89949 18.89C1.34721 19.0778 0.867317 19.4333 0.526793 19.9069C0.18627 20.3805 0.00210477 20.9486 0 21.5319V23.4043C0.00181069 23.895 0.132474 24.3766 0.378915 24.801C0.625356 25.2254 0.978931 25.5776 1.40426 25.8224V28.5532C1.40388 28.7927 1.49528 29.0232 1.65967 29.1973C1.82405 29.3714 2.04891 29.476 2.288 29.4894L5.34928 29.6607C5.7047 30.8395 6.205 31.9697 6.83872 33.0253L4.72953 35.3807C4.56993 35.559 4.48467 35.7917 4.49129 36.0309C4.49791 36.2701 4.59589 36.4977 4.76511 36.667L8.73728 40.6391C8.90651 40.8084 9.13412 40.9064 9.37334 40.913C9.61257 40.9196 9.84525 40.8343 10.0236 40.6747L12.5278 38.4335C13.5443 38.9876 14.6215 39.4221 15.738 39.7283L15.9158 43.1134C15.9285 43.353 16.0328 43.5786 16.207 43.7436C16.3812 43.9085 16.6121 44.0003 16.852 44H22.469C22.7089 44.0003 22.9398 43.9085 23.114 43.7436C23.2883 43.5786 23.3925 43.353 23.4052 43.1134L23.5831 39.7283C24.7031 39.4217 25.7835 38.9856 26.8026 38.4289L29.2956 40.6757C29.4738 40.8361 29.7067 40.922 29.9464 40.9157C30.1861 40.9094 30.4142 40.8115 30.5837 40.642L34.5559 36.6698C34.7254 36.5002 34.8234 36.2721 34.8297 36.0324C34.8359 35.7928 34.75 35.5598 34.5896 35.3816L32.4757 33.0318C33.1136 31.971 33.6168 30.8348 33.9736 29.6494L37.0293 29.4884C37.2689 29.4757 37.4944 29.3715 37.6594 29.1973C37.8244 29.0231 37.9162 28.7922 37.9158 28.5523V25.8224C38.341 25.5775 38.6944 25.2252 38.9406 24.8009C39.1869 24.3765 39.3174 23.8949 39.3191 23.4043V21.5319C39.3174 20.9473 39.1328 20.3778 38.7912 19.9034C38.4495 19.4289 37.968 19.0733 37.414 18.8863ZM30.0885 8.09132L28.2555 10.6957C28.1174 10.899 28.0647 11.1484 28.1089 11.3901C28.153 11.6318 28.2904 11.8465 28.4914 11.9878C28.6925 12.1291 28.941 12.1857 29.1834 12.1454C29.4258 12.1051 29.6426 11.9711 29.7871 11.7723L31.4722 9.37762C33.8771 11.9233 35.3178 15.2288 35.5454 18.7234H24.3882L25.0557 5.36613C26.8941 5.93967 28.6034 6.86524 30.0885 8.09132ZM16.9447 1.87234H22.3745C22.5014 1.87218 22.6271 1.89786 22.7439 1.94781C22.8606 1.99775 22.966 2.07093 23.0536 2.16288C23.1411 2.25483 23.2091 2.36363 23.2533 2.48267C23.2975 2.60171 23.317 2.7285 23.3106 2.85532L22.514 18.7234H16.8033L16.0085 2.85532C16.0022 2.7285 16.0217 2.60171 16.0659 2.48267C16.1101 2.36363 16.178 2.25483 16.2656 2.16288C16.3532 2.07093 16.4585 1.99775 16.5753 1.94781C16.692 1.89786 16.8177 1.87218 16.9447 1.87234ZM7.84417 9.37762L9.52928 11.7723C9.67375 11.9711 9.89058 12.1051 10.133 12.1454C10.3754 12.1857 10.6239 12.1291 10.8249 11.9878C11.0259 11.8465 11.1633 11.6318 11.2075 11.3901C11.2516 11.1484 11.199 10.899 11.0609 10.6957L9.23064 8.09132C10.7157 6.86538 12.425 5.9401 14.2635 5.36707L14.931 18.7234H3.7737C4.00136 15.2288 5.44202 11.9233 7.84698 9.37762H7.84417ZM1.87234 21.5319C1.87234 21.2836 1.97097 21.0455 2.14654 20.8699C2.3221 20.6944 2.56022 20.5957 2.80851 20.5957H36.5106C36.7589 20.5957 36.997 20.6944 37.1726 20.8699C37.3482 21.0455 37.4468 21.2836 37.4468 21.5319V23.4043C37.4468 23.6525 37.3482 23.8907 37.1726 24.0662C36.997 24.2418 36.7589 24.3404 36.5106 24.3404H2.80851C2.56022 24.3404 2.3221 24.2418 2.14654 24.0662C1.97097 23.8907 1.87234 23.6525 1.87234 23.4043V21.5319ZM25.1923 26.2128C24.9723 27.5211 24.2958 28.709 23.2829 29.5658C22.27 30.4226 20.9862 30.8927 19.6596 30.8927C18.3329 30.8927 17.0492 30.4226 16.0363 29.5658C15.0234 28.709 14.3468 27.5211 14.1268 26.2128H25.1923ZM33.2022 27.8146C33.0027 27.825 32.8118 27.8989 32.6574 28.0256C32.5029 28.1522 32.393 28.325 32.3437 28.5186C31.9789 29.9753 31.3644 31.3579 30.5276 32.6049C30.4105 32.7781 30.3547 32.9854 30.3692 33.1939C30.3836 33.4024 30.4674 33.6001 30.6071 33.7555L32.6021 35.9714L29.8872 38.6863L27.5468 36.5818C27.3973 36.4471 27.2084 36.3642 27.0081 36.3453C26.8078 36.3264 26.6067 36.3726 26.4346 36.4769C25.2133 37.2219 23.8771 37.7596 22.4803 38.0684C22.2801 38.1124 22.0999 38.2208 21.9673 38.3771C21.8347 38.5334 21.7571 38.7288 21.7463 38.9334L21.5797 42.1277H17.7414L17.5729 38.9353C17.5621 38.7307 17.4844 38.5352 17.3518 38.379C17.2192 38.2227 17.039 38.1143 16.8389 38.0703C15.446 37.761 14.1133 37.2252 12.8939 36.4844C12.7224 36.3807 12.5222 36.3347 12.3227 36.3533C12.1232 36.3718 11.9349 36.4539 11.7854 36.5874L9.4366 38.6891L6.7217 35.9695L8.70638 33.7433C8.84558 33.588 8.92892 33.3906 8.94317 33.1825C8.95741 32.9744 8.90175 32.7675 8.78502 32.5946C7.95261 31.3536 7.34073 29.9781 6.97634 28.5289C6.92693 28.3362 6.81745 28.1643 6.66376 28.0381C6.51008 27.9118 6.32019 27.8378 6.12162 27.8267L3.2766 27.6676V26.2128H12.2348C12.4615 28.0221 13.341 29.6864 14.7082 30.893C16.0754 32.0995 17.8361 32.7654 19.6596 32.7654C21.483 32.7654 23.2438 32.0995 24.6109 30.893C25.9781 29.6864 26.8577 28.0221 27.0843 26.2128H36.0426V27.6657L33.2022 27.8146Z" fill="#202327"/>
<path d="M19.6598 7.4898C19.9081 7.4898 20.1462 7.39117 20.3218 7.2156C20.4973 7.04003 20.596 6.80192 20.596 6.55363V4.68129C20.596 4.433 20.4973 4.19488 20.3218 4.01932C20.1462 3.84375 19.9081 3.74512 19.6598 3.74512C19.4115 3.74512 19.1734 3.84375 18.9978 4.01932C18.8223 4.19488 18.7236 4.433 18.7236 4.68129V6.55363C18.7236 6.80192 18.8223 7.04003 18.9978 7.2156C19.1734 7.39117 19.4115 7.4898 19.6598 7.4898Z" fill="#202327"/>
</svg>
