<svg width="121" height="50" viewBox="0 0 121 50" fill="none" xmlns="http://www.w3.org/2000/svg">
<path d="M34.7685 0.348633H40.8045L44.1088 9.90245C44.6173 11.3573 45.2523 13.6354 45.2523 13.6354H45.3163C45.3163 13.6354 45.9513 11.358 46.4598 9.90245L49.7641 0.348633H55.8001L57.6425 22.9675H52.0828L51.3839 12.7814C51.2567 11.0726 51.3839 8.98548 51.3839 8.98548H51.3199C51.3199 8.98548 50.5571 11.358 50.0492 12.7814L47.6666 19.3297H42.9013L40.5187 12.7814C40.0101 11.358 39.248 8.98548 39.248 8.98548H39.184C39.184 8.98548 39.3112 11.0733 39.184 12.7814L38.4851 22.9675H32.8937L34.7685 0.348633Z" fill="#202327"/>
<path d="M69.1148 12.8129H69.5918V12.5282C69.5918 11.1677 68.4798 10.725 67.2724 10.725C65.6842 10.725 64.0644 11.4209 62.7614 12.275L60.8549 8.4154C62.2528 7.33964 65.1124 6.29607 67.7802 6.29607C72.2919 6.29607 75.0876 8.79521 75.0876 12.9395V22.9675H70.068V21.9869C70.068 21.449 70.132 20.9748 70.132 20.9748H70.068C68.9877 22.4933 67.0813 23.3473 65.2072 23.3473C62.0617 23.3473 59.8701 21.1958 59.8701 18.3805C59.8701 14.0145 65.0808 12.8129 69.1148 12.8129ZM66.8593 19.266C68.4482 19.266 69.655 17.716 69.655 16.3878V15.9443H69.1472C67.4634 15.9443 65.3035 16.3878 65.3035 17.8741C65.3027 18.6337 65.8429 19.266 66.8593 19.266Z" fill="#202327"/>
<path d="M78.5843 6.67588H83.8581V9.42823C83.8581 9.96611 83.7942 10.4403 83.7942 10.4403H83.8581C84.5571 8.22586 86.6222 6.3912 89.0681 6.3912C89.2907 6.3912 89.5134 6.42268 89.7038 6.45415V11.8322C89.5134 11.7693 88.9733 11.7371 88.5918 11.7371C85.5419 11.7371 84.0801 13.6669 84.0801 16.6403V22.9668H78.5843V6.67588Z" fill="#202327"/>
<path d="M92.1201 0.348633H97.6159V12.0533H99.1732L102.414 6.67517H108.386L103.589 14.0775V14.1404L109.054 22.9661H102.795L99.332 16.6395H97.6159V22.9661H92.1201V0.348633Z" fill="#202327"/>
<path d="M111.851 11.2314H109.754V6.96055H112.01V2.27841H117.347V6.96055H120.778V11.2314H117.347V16.2297C117.347 18.0643 119.221 18.3176 120.269 18.3176C120.46 18.3176 120.651 18.3176 121 18.2861V23.0312C120.588 23.0626 120.142 23.1263 119.507 23.1263C116.902 23.1263 111.851 22.4303 111.851 16.9578V11.2314Z" fill="#202327"/>
<path d="M35.1499 42.5651C36.4206 43.6723 38.5806 44.9062 40.6141 44.9062C42.1714 44.9062 42.9652 44.2102 42.9652 43.3247C42.9652 40.1296 32.9267 40.636 32.9267 33.5499C32.9267 29.3741 36.3897 26.6218 41.1543 26.6218C43.6957 26.6218 46.301 27.4444 48.2706 29.1839L45.9196 33.7079C44.6489 32.6007 42.6793 31.7152 40.9007 31.7152C39.217 31.7152 38.4865 32.4112 38.4865 33.3281C38.4865 36.5547 48.5249 35.7958 48.5249 42.9449C48.5249 46.7408 45.6976 49.9996 40.4561 49.9996C37.5017 49.9996 34.3885 48.9238 32.2285 46.773L35.1499 42.5651Z" fill="#202327"/>
<path d="M52.0859 37.883H49.9891V33.6121H52.2446V28.93H57.5817V33.6121H61.0131V37.883H57.5817V42.8812C57.5817 44.7159 59.4565 44.9691 60.5045 44.9691C60.6949 44.9691 60.886 44.9691 61.2351 44.9376V49.6827C60.8228 49.7142 60.3774 49.7778 59.7417 49.7778C57.1371 49.7778 52.0859 49.0819 52.0859 43.6094V37.883Z" fill="#202327"/>
<path d="M71.7847 32.9476C76.6139 32.9476 79.3457 36.3008 79.3457 40.8248C79.3457 41.3942 79.2818 41.9636 79.2186 42.5329H68.8935C69.3058 44.5256 70.9579 45.4433 72.7056 45.4433C74.3254 45.4433 75.8827 44.6844 77.2173 43.7982L79.2509 47.6263C77.4716 49.1448 74.7715 49.9989 72.261 49.9989C66.4153 49.9989 63.2705 45.7917 63.2705 41.4579C63.2705 36.6806 66.5101 32.9476 71.7847 32.9476ZM73.9124 39.4015C73.9124 38.0725 73.0547 36.9653 71.6576 36.9653C70.0687 36.9653 69.3065 38.104 69.0206 39.4015H73.9124Z" fill="#202327"/>
<path d="M82.2067 33.3274H87.7025V49.6191H82.2067V33.3274ZM82.2706 27.0009H87.6393V31.271H82.2706V27.0009Z" fill="#202327"/>
<path d="M91.389 33.3274H96.6628V34.7508C96.6628 35.2887 96.5989 35.7629 96.5989 35.7629H96.6628C97.425 34.4976 98.9816 32.9469 101.873 32.9469C105.177 32.9469 107.751 34.4654 107.751 39.0524V49.6184H102.254V40.066C102.254 38.5475 101.651 37.9144 100.443 37.9144C97.9967 37.9144 96.8848 39.9394 96.8848 42.2482V49.6191H91.389V33.3274Z" fill="#202327"/>
<path d="M4.08505 19.5647V7.87723H0V23.6317H15.8209V19.5647H4.08505Z" fill="#FFCD00"/>
<path d="M7.90989 0V4.06772H19.6464V15.7545H23.7308V0H7.90989Z" fill="#FFCD00"/>
</svg>
