<svg width="50" height="50" viewBox="0 0 50 50" fill="none" xmlns="http://www.w3.org/2000/svg">
                  <path d="M39.1519 5.31361C39.2304 5.218 39.3292 5.14099 39.4411 5.08811C39.553 5.03524 39.6752 5.00781 39.799 5.00781C39.9228 5.00781 40.045 5.03524 40.1569 5.08811C40.2688 5.14099 40.3676 5.218 40.4461 5.31361L45.3009 11.7866C45.406 11.9267 45.4628 12.0971 45.4629 12.2722V39.7825C45.4629 41.2846 44.8662 42.7253 43.804 43.7875C42.7418 44.8497 41.3012 45.4464 39.799 45.4464C38.2968 45.4464 36.8562 44.8497 35.794 43.7875C34.7318 42.7253 34.1351 41.2846 34.1351 39.7825V12.2722C34.1352 12.0971 34.192 11.9267 34.2971 11.7866L39.1519 5.31361ZM43.8446 13.0813H35.7534V35.7369H43.8446V13.0813ZM39.799 7.14757L36.5625 11.463H43.0355L39.799 7.14757ZM39.799 43.8281C40.8716 43.8269 41.8999 43.4002 42.6583 42.6418C43.4167 41.8834 43.8434 40.8551 43.8446 39.7825V37.3551H35.7534V39.7825C35.7546 40.8551 36.1813 41.8834 36.9397 42.6418C37.6981 43.4002 38.7264 43.8269 39.799 43.8281Z" fill="#c19453"></path>
                  <path d="M5.39908 41.6363L28.0973 6.11094C28.3786 5.66863 28.797 5.33069 29.2887 5.14886C29.7803 4.96703 30.3179 4.95134 30.8193 5.10419C31.3207 5.25703 31.7582 5.56999 32.0648 5.99515C32.3713 6.42031 32.5301 6.93423 32.5168 7.45822V42.984C32.5235 43.6293 32.2739 44.251 31.8229 44.7125C31.3719 45.1741 30.7562 45.438 30.1109 45.4462H7.41264C6.97335 45.4366 6.5446 45.3098 6.17074 45.079C5.79688 44.8481 5.49149 44.5215 5.28618 44.133C5.08086 43.7446 4.98307 43.3083 5.00292 42.8693C5.02277 42.4304 5.15954 42.0047 5.39908 41.6363ZM7.41264 43.8047H11.6653V41.3426C11.6629 41.2357 11.6818 41.1294 11.721 41.03C11.7602 40.9305 11.8188 40.8399 11.8936 40.7634C11.9683 40.687 12.0575 40.6262 12.156 40.5847C12.2546 40.5432 12.3604 40.5219 12.4673 40.5219C12.5742 40.5219 12.68 40.5432 12.7786 40.5847C12.8771 40.6262 12.9664 40.687 13.0411 40.7634C13.1158 40.8399 13.1745 40.9305 13.2137 41.03C13.2528 41.1294 13.2718 41.2357 13.2693 41.3426V43.8047H16.4772V42.1633C16.4747 42.0564 16.4937 41.9501 16.5328 41.8507C16.572 41.7512 16.6307 41.6606 16.7054 41.5841C16.7801 41.5077 16.8694 41.4469 16.9679 41.4054C17.0665 41.3639 17.1723 41.3426 17.2792 41.3426C17.3861 41.3426 17.4919 41.3639 17.5905 41.4054C17.689 41.4469 17.7782 41.5077 17.8529 41.5841C17.9277 41.6606 17.9863 41.7512 18.0255 41.8507C18.0647 41.9501 18.0836 42.0564 18.0812 42.1633V43.8047H21.2891V41.3426C21.2866 41.2357 21.3055 41.1294 21.3447 41.03C21.3839 40.9305 21.4426 40.8399 21.5173 40.7634C21.592 40.687 21.6813 40.6262 21.7798 40.5847C21.8783 40.5432 21.9842 40.5219 22.0911 40.5219C22.198 40.5219 22.3038 40.5432 22.4023 40.5847C22.5009 40.6262 22.5901 40.687 22.6648 40.7634C22.7395 40.8399 22.7982 40.9305 22.8374 41.03C22.8766 41.1294 22.8955 41.2357 22.893 41.3426V43.8047H26.101V42.1633C26.0985 42.0564 26.1174 41.9501 26.1566 41.8507C26.1958 41.7512 26.2545 41.6606 26.3292 41.5841C26.4039 41.5077 26.4932 41.4469 26.5917 41.4054C26.6902 41.3639 26.796 41.3426 26.9029 41.3426C27.0099 41.3426 27.1157 41.3639 27.2142 41.4054C27.3127 41.4469 27.402 41.5077 27.4767 41.5841C27.5514 41.6606 27.6101 41.7512 27.6493 41.8507C27.6885 41.9501 27.7074 42.0564 27.7049 42.1633V43.8047H30.1109C30.326 43.802 30.5312 43.7141 30.6816 43.5602C30.8319 43.4064 30.9151 43.1991 30.9128 42.984V39.7012H29.3089C29.0945 39.6962 28.8906 39.6075 28.7408 39.4542C28.591 39.3008 28.5071 39.0949 28.5071 38.8805C28.5071 38.6661 28.591 38.4602 28.7408 38.3068C28.8906 38.1534 29.0945 38.0648 29.3089 38.0598H30.9128V34.7769H28.5069C28.2926 34.772 28.0887 34.6833 27.9388 34.5299C27.789 34.3766 27.7051 34.1706 27.7051 33.9562C27.7051 33.7418 27.789 33.5359 27.9388 33.3825C28.0887 33.2292 28.2926 33.1405 28.5069 33.1355H30.9128V29.8527H29.3089C29.0945 29.8477 28.8906 29.759 28.7408 29.6056C28.591 29.4523 28.5071 29.2464 28.5071 29.0319C28.5071 28.8175 28.591 28.6116 28.7408 28.4583C28.8906 28.3049 29.0945 28.2162 29.3089 28.2112H30.9128V24.9284H28.5069C28.2925 24.9234 28.0886 24.8348 27.9387 24.6814C27.7888 24.5281 27.7049 24.3221 27.7049 24.1077C27.7049 23.8932 27.7888 23.6873 27.9387 23.5339C28.0886 23.3805 28.2925 23.2919 28.5069 23.287H30.9128V20.0041H29.3089C29.0945 19.9992 28.8906 19.9105 28.7407 19.7572C28.5908 19.6038 28.5069 19.3979 28.5069 19.1834C28.5069 18.969 28.5908 18.763 28.7407 18.6097C28.8906 18.4563 29.0945 18.3676 29.3089 18.3627H30.9128V15.0799H28.5069C28.2925 15.0749 28.0886 14.9863 27.9387 14.8329C27.7888 14.6795 27.7049 14.4736 27.7049 14.2591C27.7049 14.0447 27.7888 13.8388 27.9387 13.6854C28.0886 13.532 28.2925 13.4434 28.5069 13.4384H30.9128V7.45822C30.9174 7.28352 30.8645 7.11215 30.7623 6.97039C30.6601 6.82862 30.5142 6.72428 30.347 6.67335C30.1798 6.62242 30.0006 6.6277 29.8367 6.6884C29.6728 6.7491 29.5333 6.86186 29.4397 7.0094L6.74146 42.5348C6.6613 42.6575 6.61547 42.7995 6.6087 42.9459C6.60193 43.0923 6.63449 43.2379 6.70298 43.3675C6.77147 43.4971 6.87341 43.606 6.9982 43.6829C7.12299 43.7597 7.26609 43.8018 7.41264 43.8047Z" fill="#c19453"></path>
                  <path d="M24.5616 20.7232C24.6582 20.5791 24.7985 20.4698 24.9618 20.4115C25.1251 20.3531 25.3029 20.3487 25.4689 20.399C25.6349 20.4493 25.7804 20.5515 25.8839 20.6907C25.9874 20.8298 26.0435 20.9985 26.0439 21.172V38.1636C26.044 38.2699 26.0231 38.3751 25.9824 38.4733C25.9418 38.5715 25.8822 38.6607 25.807 38.7358C25.7319 38.811 25.6427 38.8706 25.5445 38.9112C25.4463 38.9519 25.3411 38.9728 25.2348 38.9728H13.907C13.7607 38.9726 13.6171 38.9327 13.4915 38.8574C13.366 38.7821 13.2632 38.6742 13.1942 38.5452C13.1251 38.4161 13.0923 38.2707 13.0993 38.1245C13.1063 37.9783 13.1528 37.8367 13.2338 37.7148L24.5616 20.7232ZM24.4257 37.3545V23.8443L15.4186 37.3545H24.4257Z" fill="#c19453"></path>
              </svg>