<svg xmlns="http://www.w3.org/2000/svg" width="50" height="50" viewBox="0 0 50 50" fill="none">
<path d="M47.7295 8.19617L44.9151 5.28312C44.77 5.13276 44.5806 5.03693 44.3769 5.01088C44.1731 4.98482 43.9668 5.03003 43.7908 5.13932L36.7535 9.51032C36.598 9.60674 36.4734 9.74856 36.3955 9.91799C36.3176 10.0874 36.2898 10.2769 36.3156 10.4626L36.6008 12.5424L27.1916 22.2319C26.1032 21.3539 25.2457 20.6911 23.9513 19.7741C24.5637 17.5687 24.5291 15.2247 23.8519 13.0397C23.1746 10.8547 21.8853 8.92731 20.1475 7.50237C18.4098 6.07743 16.3021 5.2192 14.0922 5.03668C11.8823 4.85416 9.66977 5.35559 7.73572 6.47729C7.61161 6.54912 7.50527 6.64975 7.42506 6.77128C7.34484 6.89281 7.29294 7.03193 7.27342 7.17772C7.25389 7.32351 7.26728 7.472 7.31254 7.61153C7.35779 7.75106 7.43368 7.87784 7.53424 7.9819L14.5311 15.2136C14.8837 15.5798 15.0813 16.076 15.0804 16.593C15.0795 17.11 14.8803 17.6055 14.5265 17.9705C14.1727 18.3354 13.6933 18.5399 13.1938 18.539C12.6943 18.5381 12.2156 18.3319 11.863 17.9657L4.88087 10.7283C4.78033 10.6242 4.65785 10.5457 4.52304 10.4988C4.38824 10.452 4.24478 10.4381 4.10393 10.4583C3.96308 10.4785 3.82867 10.5323 3.71125 10.6153C3.59384 10.6983 3.49662 10.8084 3.42722 10.9369C2.34354 12.9381 1.85909 15.2276 2.03545 17.5145C2.2118 19.8014 3.04099 21.9824 4.41765 23.7804C5.79432 25.5784 7.65631 26.9121 9.76702 27.6123C11.8777 28.3124 14.1419 28.3472 16.2718 27.7124L16.292 27.7428C14.1283 30.0334 12.1477 32.5019 10.3698 35.124C9.58654 36.3386 9.24457 37.8013 9.40459 39.2522C9.5646 40.7031 10.2163 42.0483 11.2438 43.049C12.2112 44.1107 13.5103 44.784 14.9112 44.9497C16.3121 45.1155 17.7245 44.763 18.8985 43.9546C21.146 42.3238 23.2754 40.5252 25.2697 38.5732C27.2177 40.4752 29.2845 42.2423 31.4569 43.8632C32.5723 44.6984 33.9388 45.0947 35.311 44.9809C36.6833 44.8671 37.9714 44.2506 38.9441 43.2423C39.919 42.2349 40.5149 40.9007 40.6247 39.4793C40.7345 38.058 40.3509 36.6427 39.543 35.4878C37.2017 32.1224 34.5489 29.0013 31.6225 26.1687L40.7161 16.801L42.7273 17.0963C42.9066 17.123 43.0896 17.0944 43.2533 17.0139C43.4169 16.9334 43.554 16.8047 43.6473 16.6439L47.8693 9.35986C47.9748 9.17755 48.0183 8.96396 47.993 8.75309C47.9676 8.54222 47.8749 8.34618 47.7295 8.19617ZM7.34563 24.1451C5.78417 22.8516 4.66456 21.0739 4.15122 19.0731C3.63788 17.0724 3.75786 14.954 4.49354 13.029L10.5565 19.3141C11.2553 20.0373 12.2029 20.4436 13.191 20.4436C13.6803 20.4436 14.1648 20.3439 14.6168 20.1501C15.0689 19.9563 15.4796 19.6722 15.8256 19.3141C16.1715 18.956 16.446 18.5309 16.6332 18.063C16.8204 17.5951 16.9168 17.0937 16.9168 16.5873C16.9168 16.0808 16.8204 15.5794 16.6332 15.1115C16.446 14.6436 16.1715 14.2185 15.8256 13.8604L9.75335 7.5867C11.2815 6.9618 12.9418 6.7647 14.5669 7.01525C16.1921 7.2658 17.7248 7.95514 19.0107 9.01387C20.2965 10.0726 21.2902 11.4633 21.8916 13.046C22.493 14.6287 22.6809 16.3475 22.4364 18.0292C22.1918 19.711 21.5235 21.2964 20.4986 22.6257C19.4738 23.9551 18.1287 24.9815 16.5987 25.6015C15.0687 26.2216 13.4079 26.4134 11.7835 26.1577C10.159 25.9021 8.62838 25.2079 7.34563 24.1451ZM17.8386 42.3976C17.0179 42.9463 16.0363 43.1773 15.0671 43.05C14.0979 42.9226 13.2032 42.445 12.541 41.7015C11.8308 41.0111 11.3755 40.0858 11.2536 39.0853C11.1316 38.0847 11.3507 37.0714 11.8731 36.2201C13.5319 33.7799 15.3668 31.4733 17.362 29.3198C19.3559 32.1381 21.5557 34.7939 23.9421 37.2638C22.0235 39.1177 19.9842 40.833 17.8386 42.3976ZM38.0535 36.6001C38.6036 37.3886 38.8646 38.354 38.7898 39.3235C38.715 40.2931 38.3092 41.2034 37.645 41.8914C36.9809 42.5795 36.1019 43.0005 35.1653 43.0789C34.2287 43.1573 33.2957 42.8881 32.5333 42.3195C26.9053 38.1061 22.0068 32.9371 18.0456 27.0315C18.7942 26.6487 19.5032 26.1879 20.1617 25.6564C21.4667 24.55 22.5308 23.1704 23.2842 21.6082C28.9897 25.7067 33.9834 30.7756 38.0535 36.6001ZM42.3776 15.1222L40.5173 14.8489C40.3764 14.8282 40.2327 14.8417 40.0976 14.8883C39.9626 14.9349 39.8398 15.0134 39.739 15.1174L30.2728 24.8726C29.7898 24.4308 29.1384 23.8594 28.637 23.4309L38.2246 13.5537C38.326 13.4493 38.4025 13.3219 38.4481 13.1816C38.4936 13.0412 38.5068 12.8918 38.4868 12.7452L38.2228 10.8178L44.122 7.15531L45.9207 9.01704L42.3776 15.1222Z" fill="#c19453"/>
</svg>