<svg width="100" height="100" viewBox="0 0 100 100" fill="none" xmlns="http://www.w3.org/2000/svg">
<rect width="100" height="100" rx="30" fill="black"/>
<rect x="53" width="47" height="45" fill="black"/>
<rect y="50" width="50" height="50" fill="black"/>
<path d="M27.5912 68.825C26.5645 68.825 25.4278 68.6967 24.1812 68.44C22.9345 68.22 21.7428 67.8533 20.6062 67.34C19.5062 66.8267 18.5895 66.13 17.8562 65.25C17.1595 64.3333 16.8112 63.215 16.8112 61.895C16.8112 61.1617 16.9028 60.3917 17.0862 59.585C17.2695 58.7783 17.5078 58.1183 17.8012 57.605H19.0662C19.2128 60.3917 20.1295 62.5917 21.8162 64.205C23.5028 65.8183 25.6478 66.625 28.2512 66.625C30.0478 66.625 31.4778 66.295 32.5412 65.635C33.6412 64.975 34.4295 64.1317 34.9062 63.105C35.4195 62.0417 35.6762 60.9233 35.6762 59.75C35.6762 58.0633 35.2545 56.6883 34.4112 55.625C33.5678 54.525 32.4678 53.6083 31.1112 52.875C29.7912 52.105 28.3795 51.39 26.8762 50.73C25.4095 50.0333 23.9978 49.2633 22.6412 48.42C21.3212 47.5767 20.2395 46.5317 19.3962 45.285C18.5528 44.0383 18.1312 42.4617 18.1312 40.555C18.1312 38.575 18.6262 36.8517 19.6162 35.385C20.6062 33.8817 21.9995 32.7083 23.7962 31.865C25.5928 31.0217 27.7012 30.6 30.1212 30.6C32.2478 30.6 33.9895 30.765 35.3462 31.095C36.7395 31.425 37.8578 31.755 38.7012 32.085V40.06H37.4362C37.2162 37.7133 36.5195 35.9167 35.3462 34.67C34.1728 33.4233 32.3028 32.8 29.7362 32.8C27.9395 32.8 26.4728 33.0933 25.3362 33.68C24.2362 34.23 23.4295 34.9633 22.9162 35.88C22.4395 36.76 22.2012 37.695 22.2012 38.685C22.2012 40.1517 22.6228 41.3617 23.4662 42.315C24.3095 43.2683 25.3912 44.0933 26.7112 44.79C28.0678 45.4867 29.4978 46.1833 31.0012 46.88C32.5412 47.5767 33.9712 48.3833 35.2912 49.3C36.6478 50.2167 37.7478 51.3533 38.5912 52.71C39.4345 54.0667 39.8562 55.79 39.8562 57.88C39.8562 60.1533 39.3245 62.115 38.2612 63.765C37.2345 65.3783 35.7862 66.625 33.9162 67.505C32.0828 68.385 29.9745 68.825 27.5912 68.825ZM65.0917 30.6C67.585 30.6 69.9317 31.04 72.1317 31.92C74.3317 32.8 76.2934 34.0833 78.0167 35.77C79.74 37.42 81.0784 39.4183 82.0317 41.765C83.0217 44.1117 83.5167 46.7333 83.5167 49.63C83.5167 52.5267 83.0217 55.1483 82.0317 57.495C81.0784 59.8417 79.74 61.8583 78.0167 63.545C76.33 65.2317 74.3684 66.5333 72.1317 67.45C69.895 68.3667 67.53 68.825 65.0367 68.825C62.58 68.825 60.2334 68.385 57.9967 67.505C55.7967 66.625 53.835 65.36 52.1117 63.71C50.425 62.0233 49.0867 60.0067 48.0967 57.66C47.1434 55.3133 46.6667 52.6917 46.6667 49.795C46.6667 46.8983 47.1434 44.2767 48.0967 41.93C49.0867 39.5833 50.425 37.5667 52.1117 35.88C53.835 34.1933 55.7967 32.8917 57.9967 31.975C60.2334 31.0583 62.5984 30.6 65.0917 30.6ZM65.8617 66.625C68.0617 66.625 70.0784 66.02 71.9117 64.81C73.7817 63.6 75.285 61.8217 76.4217 59.475C77.5584 57.0917 78.1267 54.1583 78.1267 50.675C78.1267 46.8617 77.4667 43.635 76.1467 40.995C74.8267 38.3183 73.1217 36.2833 71.0317 34.89C68.9417 33.4967 66.705 32.8 64.3217 32.8C62.1217 32.8 60.0867 33.405 58.2167 34.615C56.3467 35.825 54.8434 37.6217 53.7067 40.005C52.57 42.3517 52.0017 45.2667 52.0017 48.75C52.0017 52.5633 52.6617 55.8083 53.9817 58.485C55.3017 61.125 57.025 63.1417 59.1517 64.535C61.2784 65.9283 63.515 66.625 65.8617 66.625Z" fill="white"/>
</svg>
