<svg width="414" height="100" viewBox="0 0 414 100" fill="none" xmlns="http://www.w3.org/2000/svg">
<rect width="100" height="100" rx="30" fill="black"/>
<rect x="53" width="47" height="45" fill="black"/>
<rect y="50" width="50" height="50" fill="black"/>
<path d="M27.5912 68.825C26.5645 68.825 25.4278 68.6967 24.1812 68.44C22.9345 68.22 21.7428 67.8533 20.6062 67.34C19.5062 66.8267 18.5895 66.13 17.8562 65.25C17.1595 64.3333 16.8112 63.215 16.8112 61.895C16.8112 61.1617 16.9028 60.3917 17.0862 59.585C17.2695 58.7783 17.5078 58.1183 17.8012 57.605H19.0662C19.2128 60.3917 20.1295 62.5917 21.8162 64.205C23.5028 65.8183 25.6478 66.625 28.2512 66.625C30.0478 66.625 31.4778 66.295 32.5412 65.635C33.6412 64.975 34.4295 64.1317 34.9062 63.105C35.4195 62.0417 35.6762 60.9233 35.6762 59.75C35.6762 58.0633 35.2545 56.6883 34.4112 55.625C33.5678 54.525 32.4678 53.6083 31.1112 52.875C29.7912 52.105 28.3795 51.39 26.8762 50.73C25.4095 50.0333 23.9978 49.2633 22.6412 48.42C21.3212 47.5767 20.2395 46.5317 19.3962 45.285C18.5528 44.0383 18.1312 42.4617 18.1312 40.555C18.1312 38.575 18.6262 36.8517 19.6162 35.385C20.6062 33.8817 21.9995 32.7083 23.7962 31.865C25.5928 31.0217 27.7012 30.6 30.1212 30.6C32.2478 30.6 33.9895 30.765 35.3462 31.095C36.7395 31.425 37.8578 31.755 38.7012 32.085V40.06H37.4362C37.2162 37.7133 36.5195 35.9167 35.3462 34.67C34.1728 33.4233 32.3028 32.8 29.7362 32.8C27.9395 32.8 26.4728 33.0933 25.3362 33.68C24.2362 34.23 23.4295 34.9633 22.9162 35.88C22.4395 36.76 22.2012 37.695 22.2012 38.685C22.2012 40.1517 22.6228 41.3617 23.4662 42.315C24.3095 43.2683 25.3912 44.0933 26.7112 44.79C28.0678 45.4867 29.4978 46.1833 31.0012 46.88C32.5412 47.5767 33.9712 48.3833 35.2912 49.3C36.6478 50.2167 37.7478 51.3533 38.5912 52.71C39.4345 54.0667 39.8562 55.79 39.8562 57.88C39.8562 60.1533 39.3245 62.115 38.2612 63.765C37.2345 65.3783 35.7862 66.625 33.9162 67.505C32.0828 68.385 29.9745 68.825 27.5912 68.825ZM65.0917 30.6C67.585 30.6 69.9317 31.04 72.1317 31.92C74.3317 32.8 76.2934 34.0833 78.0167 35.77C79.74 37.42 81.0784 39.4183 82.0317 41.765C83.0217 44.1117 83.5167 46.7333 83.5167 49.63C83.5167 52.5267 83.0217 55.1483 82.0317 57.495C81.0784 59.8417 79.74 61.8583 78.0167 63.545C76.33 65.2317 74.3684 66.5333 72.1317 67.45C69.895 68.3667 67.53 68.825 65.0367 68.825C62.58 68.825 60.2334 68.385 57.9967 67.505C55.7967 66.625 53.835 65.36 52.1117 63.71C50.425 62.0233 49.0867 60.0067 48.0967 57.66C47.1434 55.3133 46.6667 52.6917 46.6667 49.795C46.6667 46.8983 47.1434 44.2767 48.0967 41.93C49.0867 39.5833 50.425 37.5667 52.1117 35.88C53.835 34.1933 55.7967 32.8917 57.9967 31.975C60.2334 31.0583 62.5984 30.6 65.0917 30.6ZM65.8617 66.625C68.0617 66.625 70.0784 66.02 71.9117 64.81C73.7817 63.6 75.285 61.8217 76.4217 59.475C77.5584 57.0917 78.1267 54.1583 78.1267 50.675C78.1267 46.8617 77.4667 43.635 76.1467 40.995C74.8267 38.3183 73.1217 36.2833 71.0317 34.89C68.9417 33.4967 66.705 32.8 64.3217 32.8C62.1217 32.8 60.0867 33.405 58.2167 34.615C56.3467 35.825 54.8434 37.6217 53.7067 40.005C52.57 42.3517 52.0017 45.2667 52.0017 48.75C52.0017 52.5633 52.6617 55.8083 53.9817 58.485C55.3017 61.125 57.025 63.1417 59.1517 64.535C61.2784 65.9283 63.515 66.625 65.8617 66.625Z" fill="white"/>
<rect x="130" width="3" height="100" rx="1.5" fill="black"/>
<path d="M183.61 6.7975C183.475 7.0225 183.325 7.195 183.16 7.315C183.01 7.42 182.823 7.4725 182.598 7.4725C182.343 7.4725 182.043 7.345 181.698 7.09C181.353 6.835 180.918 6.5575 180.393 6.2575C179.883 5.9425 179.26 5.6575 178.525 5.4025C177.805 5.1475 176.928 5.02 175.893 5.02C174.918 5.02 174.055 5.155 173.305 5.425C172.57 5.68 171.948 6.0325 171.438 6.4825C170.943 6.9325 170.568 7.465 170.313 8.08C170.058 8.68 169.93 9.3325 169.93 10.0375C169.93 10.9375 170.148 11.6875 170.583 12.2875C171.033 12.8725 171.618 13.375 172.338 13.795C173.073 14.215 173.898 14.5825 174.813 14.8975C175.743 15.1975 176.688 15.5125 177.648 15.8425C178.623 16.1725 179.568 16.5475 180.483 16.9675C181.413 17.3725 182.238 17.89 182.958 18.52C183.693 19.15 184.278 19.9225 184.713 20.8375C185.163 21.7525 185.388 22.8775 185.388 24.2125C185.388 25.6225 185.148 26.95 184.668 28.195C184.188 29.425 183.483 30.4975 182.553 31.4125C181.638 32.3275 180.505 33.0475 179.155 33.5725C177.82 34.0975 176.298 34.36 174.588 34.36C172.488 34.36 170.583 33.985 168.873 33.235C167.163 32.47 165.7 31.4425 164.485 30.1525L165.745 28.0825C165.865 27.9175 166.008 27.7825 166.173 27.6775C166.353 27.5575 166.548 27.4975 166.758 27.4975C166.953 27.4975 167.17 27.58 167.41 27.745C167.665 27.895 167.95 28.09 168.265 28.33C168.58 28.57 168.94 28.8325 169.345 29.1175C169.75 29.4025 170.208 29.665 170.718 29.905C171.243 30.145 171.835 30.3475 172.495 30.5125C173.155 30.6625 173.898 30.7375 174.723 30.7375C175.758 30.7375 176.68 30.595 177.49 30.31C178.3 30.025 178.983 29.6275 179.538 29.1175C180.108 28.5925 180.543 27.97 180.843 27.25C181.143 26.53 181.293 25.7275 181.293 24.8425C181.293 23.8675 181.068 23.0725 180.618 22.4575C180.183 21.8275 179.605 21.3025 178.885 20.8825C178.165 20.4625 177.34 20.11 176.41 19.825C175.48 19.525 174.535 19.225 173.575 18.925C172.615 18.61 171.67 18.25 170.74 17.845C169.81 17.44 168.985 16.915 168.265 16.27C167.545 15.625 166.96 14.8225 166.51 13.8625C166.075 12.8875 165.858 11.6875 165.858 10.2625C165.858 9.1225 166.075 8.02 166.51 6.955C166.96 5.89 167.605 4.945 168.445 4.12C169.3 3.295 170.343 2.635 171.573 2.14C172.818 1.645 174.243 1.3975 175.848 1.3975C177.648 1.3975 179.283 1.6825 180.753 2.2525C182.238 2.8225 183.543 3.6475 184.668 4.7275L183.61 6.7975ZM196.593 34.36C194.793 34.36 193.405 33.8575 192.43 32.8525C191.47 31.8475 190.99 30.4 190.99 28.51V14.56H188.245C188.005 14.56 187.803 14.4925 187.638 14.3575C187.473 14.2075 187.39 13.9825 187.39 13.6825V12.085L191.125 11.6125L192.048 4.57C192.093 4.345 192.19 4.165 192.34 4.03C192.505 3.88 192.715 3.805 192.97 3.805H194.995V11.6575H201.588V14.56H194.995V28.24C194.995 29.2 195.228 29.9125 195.693 30.3775C196.158 30.8425 196.758 31.075 197.493 31.075C197.913 31.075 198.273 31.0225 198.573 30.9175C198.888 30.7975 199.158 30.67 199.383 30.535C199.608 30.4 199.795 30.28 199.945 30.175C200.11 30.055 200.253 29.995 200.373 29.995C200.583 29.995 200.77 30.1225 200.935 30.3775L202.105 32.29C201.415 32.935 200.583 33.445 199.608 33.82C198.633 34.18 197.628 34.36 196.593 34.36ZM215.199 10.8475C216.864 10.8475 218.364 11.125 219.699 11.68C221.034 12.235 222.174 13.0225 223.119 14.0425C224.064 15.0625 224.784 16.3 225.279 17.755C225.789 19.195 226.044 20.8075 226.044 22.5925C226.044 24.3925 225.789 26.0125 225.279 27.4525C224.784 28.8925 224.064 30.1225 223.119 31.1425C222.174 32.1625 221.034 32.95 219.699 33.505C218.364 34.045 216.864 34.315 215.199 34.315C213.519 34.315 212.004 34.045 210.654 33.505C209.319 32.95 208.179 32.1625 207.234 31.1425C206.289 30.1225 205.561 28.8925 205.051 27.4525C204.556 26.0125 204.309 24.3925 204.309 22.5925C204.309 20.8075 204.556 19.195 205.051 17.755C205.561 16.3 206.289 15.0625 207.234 14.0425C208.179 13.0225 209.319 12.235 210.654 11.68C212.004 11.125 213.519 10.8475 215.199 10.8475ZM215.199 31.1875C217.449 31.1875 219.129 30.4375 220.239 28.9375C221.349 27.4225 221.904 25.315 221.904 22.615C221.904 19.9 221.349 17.785 220.239 16.27C219.129 14.755 217.449 13.9975 215.199 13.9975C214.059 13.9975 213.061 14.1925 212.206 14.5825C211.366 14.9725 210.661 15.535 210.091 16.27C209.536 17.005 209.116 17.9125 208.831 18.9925C208.561 20.0575 208.426 21.265 208.426 22.615C208.426 25.315 208.981 27.4225 210.091 28.9375C211.216 30.4375 212.919 31.1875 215.199 31.1875ZM234.904 14.515C235.399 13.96 235.924 13.4575 236.479 13.0075C237.034 12.5575 237.619 12.175 238.234 11.86C238.864 11.53 239.524 11.2825 240.214 11.1175C240.919 10.9375 241.676 10.8475 242.486 10.8475C243.731 10.8475 244.826 11.0575 245.771 11.4775C246.731 11.8825 247.526 12.4675 248.156 13.2325C248.801 13.9825 249.289 14.89 249.619 15.955C249.949 17.02 250.114 18.1975 250.114 19.4875V34H246.086V19.4875C246.086 17.7625 245.689 16.4275 244.894 15.4825C244.114 14.5225 242.921 14.0425 241.316 14.0425C240.131 14.0425 239.021 14.3275 237.986 14.8975C236.966 15.4675 236.021 16.24 235.151 17.215V34H231.124V11.2075H233.531C234.101 11.2075 234.454 11.485 234.589 12.04L234.904 14.515ZM271.471 20.1175C271.471 19.1875 271.336 18.34 271.066 17.575C270.811 16.795 270.429 16.1275 269.919 15.5725C269.424 15.0025 268.816 14.5675 268.096 14.2675C267.376 13.9525 266.559 13.795 265.644 13.795C263.724 13.795 262.201 14.3575 261.076 15.4825C259.966 16.5925 259.276 18.1375 259.006 20.1175H271.471ZM274.711 30.805C274.216 31.405 273.624 31.93 272.934 32.38C272.244 32.815 271.501 33.175 270.706 33.46C269.926 33.745 269.116 33.955 268.276 34.09C267.436 34.24 266.604 34.315 265.779 34.315C264.204 34.315 262.749 34.0525 261.414 33.5275C260.094 32.9875 258.946 32.2075 257.971 31.1875C257.011 30.1525 256.261 28.8775 255.721 27.3625C255.181 25.8475 254.911 24.1075 254.911 22.1425C254.911 20.5525 255.151 19.0675 255.631 17.6875C256.126 16.3075 256.831 15.115 257.746 14.11C258.661 13.09 259.779 12.295 261.099 11.725C262.419 11.14 263.904 10.8475 265.554 10.8475C266.919 10.8475 268.179 11.08 269.334 11.545C270.504 11.995 271.509 12.655 272.349 13.525C273.204 14.38 273.871 15.445 274.351 16.72C274.831 17.98 275.071 19.42 275.071 21.04C275.071 21.67 275.004 22.09 274.869 22.3C274.734 22.51 274.479 22.615 274.104 22.615H258.871C258.916 24.055 259.111 25.3075 259.456 26.3725C259.816 27.4375 260.311 28.33 260.941 29.05C261.571 29.755 262.321 30.2875 263.191 30.6475C264.061 30.9925 265.036 31.165 266.116 31.165C267.121 31.165 267.984 31.0525 268.704 30.8275C269.439 30.5875 270.069 30.3325 270.594 30.0625C271.119 29.7925 271.554 29.545 271.899 29.32C272.259 29.08 272.566 28.96 272.821 28.96C273.151 28.96 273.406 29.0875 273.586 29.3425L274.711 30.805ZM322.24 17.89C322.24 20.305 321.857 22.525 321.092 24.55C320.327 26.56 319.247 28.2925 317.852 29.7475C316.457 31.2025 314.777 32.335 312.812 33.145C310.862 33.94 308.702 34.3375 306.332 34.3375C303.962 34.3375 301.802 33.94 299.852 33.145C297.902 32.335 296.23 31.2025 294.835 29.7475C293.44 28.2925 292.36 26.56 291.595 24.55C290.83 22.525 290.447 20.305 290.447 17.89C290.447 15.475 290.83 13.2625 291.595 11.2525C292.36 9.2275 293.44 7.4875 294.835 6.0325C296.23 4.5625 297.902 3.4225 299.852 2.6125C301.802 1.8025 303.962 1.3975 306.332 1.3975C308.702 1.3975 310.862 1.8025 312.812 2.6125C314.777 3.4225 316.457 4.5625 317.852 6.0325C319.247 7.4875 320.327 9.2275 321.092 11.2525C321.857 13.2625 322.24 15.475 322.24 17.89ZM317.762 17.89C317.762 15.91 317.492 14.1325 316.952 12.5575C316.412 10.9825 315.647 9.655 314.657 8.575C313.667 7.48 312.467 6.64 311.057 6.055C309.647 5.47 308.072 5.1775 306.332 5.1775C304.607 5.1775 303.04 5.47 301.63 6.055C300.22 6.64 299.012 7.48 298.007 8.575C297.017 9.655 296.252 10.9825 295.712 12.5575C295.172 14.1325 294.902 15.91 294.902 17.89C294.902 19.87 295.172 21.6475 295.712 23.2225C296.252 24.7825 297.017 26.11 298.007 27.205C299.012 28.285 300.22 29.1175 301.63 29.7025C303.04 30.2725 304.607 30.5575 306.332 30.5575C308.072 30.5575 309.647 30.2725 311.057 29.7025C312.467 29.1175 313.667 28.285 314.657 27.205C315.647 26.11 316.412 24.7825 316.952 23.2225C317.492 21.6475 317.762 19.87 317.762 17.89ZM343.095 15.2575C342.975 15.4225 342.855 15.55 342.735 15.64C342.615 15.73 342.45 15.775 342.24 15.775C342.015 15.775 341.767 15.685 341.497 15.505C341.227 15.31 340.89 15.1 340.485 14.875C340.095 14.65 339.607 14.4475 339.022 14.2675C338.452 14.0725 337.747 13.975 336.907 13.975C335.782 13.975 334.792 14.1775 333.937 14.5825C333.082 14.9725 332.362 15.5425 331.777 16.2925C331.207 17.0425 330.772 17.95 330.472 19.015C330.187 20.08 330.045 21.2725 330.045 22.5925C330.045 23.9725 330.202 25.2025 330.517 26.2825C330.832 27.3475 331.275 28.2475 331.845 28.9825C332.43 29.7025 333.127 30.2575 333.937 30.6475C334.762 31.0225 335.685 31.21 336.705 31.21C337.68 31.21 338.482 31.0975 339.112 30.8725C339.742 30.6325 340.26 30.37 340.665 30.085C341.085 29.8 341.43 29.545 341.7 29.32C341.985 29.08 342.262 28.96 342.532 28.96C342.862 28.96 343.117 29.0875 343.297 29.3425L344.422 30.805C343.927 31.42 343.365 31.945 342.735 32.38C342.105 32.815 341.422 33.1825 340.687 33.4825C339.967 33.7675 339.21 33.9775 338.415 34.1125C337.62 34.2475 336.81 34.315 335.985 34.315C334.56 34.315 333.232 34.0525 332.002 33.5275C330.787 33.0025 329.73 32.245 328.83 31.255C327.93 30.25 327.225 29.02 326.715 27.565C326.205 26.11 325.95 24.4525 325.95 22.5925C325.95 20.8975 326.182 19.33 326.647 17.89C327.127 16.45 327.817 15.2125 328.717 14.1775C329.632 13.1275 330.75 12.31 332.07 11.725C333.405 11.14 334.935 10.8475 336.66 10.8475C338.265 10.8475 339.675 11.11 340.89 11.635C342.12 12.145 343.207 12.8725 344.152 13.8175L343.095 15.2575ZM363.581 20.1175C363.581 19.1875 363.446 18.34 363.176 17.575C362.921 16.795 362.538 16.1275 362.028 15.5725C361.533 15.0025 360.926 14.5675 360.206 14.2675C359.486 13.9525 358.668 13.795 357.753 13.795C355.833 13.795 354.311 14.3575 353.186 15.4825C352.076 16.5925 351.386 18.1375 351.116 20.1175H363.581ZM366.821 30.805C366.326 31.405 365.733 31.93 365.043 32.38C364.353 32.815 363.611 33.175 362.816 33.46C362.036 33.745 361.226 33.955 360.386 34.09C359.546 34.24 358.713 34.315 357.888 34.315C356.313 34.315 354.858 34.0525 353.523 33.5275C352.203 32.9875 351.056 32.2075 350.081 31.1875C349.121 30.1525 348.371 28.8775 347.831 27.3625C347.291 25.8475 347.021 24.1075 347.021 22.1425C347.021 20.5525 347.261 19.0675 347.741 17.6875C348.236 16.3075 348.941 15.115 349.856 14.11C350.771 13.09 351.888 12.295 353.208 11.725C354.528 11.14 356.013 10.8475 357.663 10.8475C359.028 10.8475 360.288 11.08 361.443 11.545C362.613 11.995 363.618 12.655 364.458 13.525C365.313 14.38 365.981 15.445 366.461 16.72C366.941 17.98 367.181 19.42 367.181 21.04C367.181 21.67 367.113 22.09 366.978 22.3C366.843 22.51 366.588 22.615 366.213 22.615H350.981C351.026 24.055 351.221 25.3075 351.566 26.3725C351.926 27.4375 352.421 28.33 353.051 29.05C353.681 29.755 354.431 30.2875 355.301 30.6475C356.171 30.9925 357.146 31.165 358.226 31.165C359.231 31.165 360.093 31.0525 360.813 30.8275C361.548 30.5875 362.178 30.3325 362.703 30.0625C363.228 29.7925 363.663 29.545 364.008 29.32C364.368 29.08 364.676 28.96 364.931 28.96C365.261 28.96 365.516 29.0875 365.696 29.3425L366.821 30.805ZM384.453 23.74C382.608 23.8 381.033 23.95 379.728 24.19C378.438 24.415 377.38 24.715 376.555 25.09C375.745 25.465 375.153 25.9075 374.778 26.4175C374.418 26.9275 374.238 27.4975 374.238 28.1275C374.238 28.7275 374.335 29.245 374.53 29.68C374.725 30.115 374.988 30.475 375.318 30.76C375.663 31.03 376.06 31.2325 376.51 31.3675C376.975 31.4875 377.47 31.5475 377.995 31.5475C378.7 31.5475 379.345 31.48 379.93 31.345C380.515 31.195 381.063 30.985 381.573 30.715C382.098 30.445 382.593 30.1225 383.058 29.7475C383.538 29.3725 384.003 28.945 384.453 28.465V23.74ZM371.515 14.425C372.775 13.21 374.133 12.3025 375.588 11.7025C377.043 11.1025 378.655 10.8025 380.425 10.8025C381.7 10.8025 382.833 11.0125 383.823 11.4325C384.813 11.8525 385.645 12.4375 386.32 13.1875C386.995 13.9375 387.505 14.845 387.85 15.91C388.195 16.975 388.368 18.145 388.368 19.42V34H386.59C386.2 34 385.9 33.94 385.69 33.82C385.48 33.685 385.315 33.43 385.195 33.055L384.745 30.895C384.145 31.45 383.56 31.945 382.99 32.38C382.42 32.8 381.82 33.16 381.19 33.46C380.56 33.745 379.885 33.9625 379.165 34.1125C378.46 34.2775 377.673 34.36 376.803 34.36C375.918 34.36 375.085 34.24 374.305 34C373.525 33.745 372.843 33.37 372.258 32.875C371.688 32.38 371.23 31.7575 370.885 31.0075C370.555 30.2425 370.39 29.3425 370.39 28.3075C370.39 27.4075 370.638 26.545 371.133 25.72C371.628 24.88 372.43 24.1375 373.54 23.4925C374.65 22.8475 376.098 22.3225 377.883 21.9175C379.668 21.4975 381.858 21.2575 384.453 21.1975V19.42C384.453 17.65 384.07 16.315 383.305 15.415C382.54 14.5 381.423 14.0425 379.953 14.0425C378.963 14.0425 378.13 14.17 377.455 14.425C376.795 14.665 376.218 14.9425 375.723 15.2575C375.243 15.5575 374.823 15.835 374.463 16.09C374.118 16.33 373.773 16.45 373.428 16.45C373.158 16.45 372.925 16.3825 372.73 16.2475C372.535 16.0975 372.37 15.9175 372.235 15.7075L371.515 14.425ZM398.248 14.515C398.743 13.96 399.268 13.4575 399.823 13.0075C400.378 12.5575 400.963 12.175 401.578 11.86C402.208 11.53 402.868 11.2825 403.558 11.1175C404.263 10.9375 405.021 10.8475 405.831 10.8475C407.076 10.8475 408.171 11.0575 409.116 11.4775C410.076 11.8825 410.871 12.4675 411.501 13.2325C412.146 13.9825 412.633 14.89 412.963 15.955C413.293 17.02 413.458 18.1975 413.458 19.4875V34H409.431V19.4875C409.431 17.7625 409.033 16.4275 408.238 15.4825C407.458 14.5225 406.266 14.0425 404.661 14.0425C403.476 14.0425 402.366 14.3275 401.331 14.8975C400.311 15.4675 399.366 16.24 398.496 17.215V34H394.468V11.2075H396.876C397.446 11.2075 397.798 11.485 397.933 12.04L398.248 14.515ZM179.52 83.69L175.583 73.4875C175.466 73.1842 175.343 72.8342 175.215 72.4375C175.087 72.0292 174.964 71.5975 174.848 71.1425C174.603 72.0875 174.352 72.875 174.095 73.505L170.158 83.69H179.52ZM186.59 93H183.965C183.662 93 183.417 92.9242 183.23 92.7725C183.043 92.6208 182.903 92.4283 182.81 92.195L180.465 86.14H169.213L166.868 92.195C166.798 92.405 166.663 92.5917 166.465 92.755C166.267 92.9183 166.022 93 165.73 93H163.105L173.133 67.9225H176.563L186.59 93ZM201.013 78.4225C200.92 78.5508 200.826 78.65 200.733 78.72C200.64 78.79 200.511 78.825 200.348 78.825C200.173 78.825 199.981 78.755 199.771 78.615C199.561 78.4633 199.298 78.3 198.983 78.125C198.68 77.95 198.301 77.7925 197.846 77.6525C197.402 77.5008 196.854 77.425 196.201 77.425C195.326 77.425 194.556 77.5825 193.891 77.8975C193.226 78.2008 192.666 78.6442 192.211 79.2275C191.767 79.8108 191.429 80.5167 191.196 81.345C190.974 82.1733 190.863 83.1008 190.863 84.1275C190.863 85.2008 190.986 86.1575 191.231 86.9975C191.476 87.8258 191.82 88.5258 192.263 89.0975C192.718 89.6575 193.261 90.0892 193.891 90.3925C194.532 90.6842 195.25 90.83 196.043 90.83C196.801 90.83 197.426 90.7425 197.916 90.5675C198.406 90.3808 198.808 90.1767 199.123 89.955C199.45 89.7333 199.718 89.535 199.928 89.36C200.15 89.1733 200.366 89.08 200.576 89.08C200.832 89.08 201.031 89.1792 201.171 89.3775L202.046 90.515C201.661 90.9933 201.223 91.4017 200.733 91.74C200.243 92.0783 199.712 92.3642 199.141 92.5975C198.581 92.8192 197.991 92.9825 197.373 93.0875C196.755 93.1925 196.125 93.245 195.483 93.245C194.375 93.245 193.342 93.0408 192.386 92.6325C191.441 92.2242 190.618 91.635 189.918 90.865C189.218 90.0833 188.67 89.1267 188.273 87.995C187.876 86.8633 187.678 85.5742 187.678 84.1275C187.678 82.8092 187.859 81.59 188.221 80.47C188.594 79.35 189.131 78.3875 189.831 77.5825C190.542 76.7658 191.411 76.13 192.438 75.675C193.476 75.22 194.666 74.9925 196.008 74.9925C197.256 74.9925 198.353 75.1967 199.298 75.605C200.255 76.0017 201.101 76.5675 201.836 77.3025L201.013 78.4225ZM208.347 78.825C208.907 77.6117 209.595 76.6667 210.412 75.99C211.229 75.3017 212.226 74.9575 213.404 74.9575C213.778 74.9575 214.134 74.9983 214.472 75.08C214.822 75.1617 215.131 75.29 215.399 75.465L215.172 77.7925C215.102 78.0842 214.927 78.23 214.647 78.23C214.484 78.23 214.244 78.195 213.929 78.125C213.614 78.055 213.259 78.02 212.862 78.02C212.302 78.02 211.8 78.1017 211.357 78.265C210.925 78.4283 210.534 78.6733 210.184 79C209.846 79.315 209.537 79.7117 209.257 80.19C208.989 80.6567 208.744 81.1933 208.522 81.8V93H205.389V75.2725H207.174C207.513 75.2725 207.746 75.3367 207.874 75.465C208.003 75.5933 208.09 75.815 208.137 76.13L208.347 78.825ZM233.433 75.2725L223.546 98.2325C223.441 98.4658 223.307 98.6525 223.143 98.7925C222.992 98.9325 222.753 99.0025 222.426 99.0025H220.116L223.353 91.9675L216.038 75.2725H218.733C219.002 75.2725 219.212 75.3425 219.363 75.4825C219.527 75.6108 219.638 75.7567 219.696 75.92L224.438 87.085C224.625 87.575 224.783 88.0883 224.911 88.625C225.074 88.0767 225.249 87.5575 225.436 87.0675L230.038 75.92C230.108 75.7333 230.225 75.5817 230.388 75.465C230.563 75.3367 230.756 75.2725 230.966 75.2725H233.433ZM239.405 67.2225V93H236.29V67.2225H239.405ZM247.747 75.2725V93H244.632V75.2725H247.747ZM248.412 69.7075C248.412 70.0108 248.348 70.2967 248.219 70.565C248.103 70.8217 247.939 71.055 247.729 71.265C247.531 71.4633 247.292 71.6208 247.012 71.7375C246.743 71.8542 246.458 71.9125 246.154 71.9125C245.851 71.9125 245.565 71.8542 245.297 71.7375C245.04 71.6208 244.813 71.4633 244.614 71.265C244.416 71.055 244.258 70.8217 244.142 70.565C244.025 70.2967 243.967 70.0108 243.967 69.7075C243.967 69.4042 244.025 69.1183 244.142 68.85C244.258 68.57 244.416 68.3308 244.614 68.1325C244.813 67.9225 245.04 67.7592 245.297 67.6425C245.565 67.5258 245.851 67.4675 246.154 67.4675C246.458 67.4675 246.743 67.5258 247.012 67.6425C247.292 67.7592 247.531 67.9225 247.729 68.1325C247.939 68.3308 248.103 68.57 248.219 68.85C248.348 69.1183 248.412 69.4042 248.412 69.7075ZM265.202 78.4225C265.109 78.5508 265.016 78.65 264.922 78.72C264.829 78.79 264.701 78.825 264.537 78.825C264.362 78.825 264.17 78.755 263.96 78.615C263.75 78.4633 263.487 78.3 263.172 78.125C262.869 77.95 262.49 77.7925 262.035 77.6525C261.592 77.5008 261.043 77.425 260.39 77.425C259.515 77.425 258.745 77.5825 258.08 77.8975C257.415 78.2008 256.855 78.6442 256.4 79.2275C255.957 79.8108 255.618 80.5167 255.385 81.345C255.163 82.1733 255.052 83.1008 255.052 84.1275C255.052 85.2008 255.175 86.1575 255.42 86.9975C255.665 87.8258 256.009 88.5258 256.452 89.0975C256.907 89.6575 257.45 90.0892 258.08 90.3925C258.722 90.6842 259.439 90.83 260.232 90.83C260.991 90.83 261.615 90.7425 262.105 90.5675C262.595 90.3808 262.997 90.1767 263.312 89.955C263.639 89.7333 263.907 89.535 264.117 89.36C264.339 89.1733 264.555 89.08 264.765 89.08C265.022 89.08 265.22 89.1792 265.36 89.3775L266.235 90.515C265.85 90.9933 265.412 91.4017 264.922 91.74C264.432 92.0783 263.902 92.3642 263.33 92.5975C262.77 92.8192 262.181 92.9825 261.562 93.0875C260.944 93.1925 260.314 93.245 259.672 93.245C258.564 93.245 257.532 93.0408 256.575 92.6325C255.63 92.2242 254.807 91.635 254.107 90.865C253.407 90.0833 252.859 89.1267 252.462 87.995C252.066 86.8633 251.867 85.5742 251.867 84.1275C251.867 82.8092 252.048 81.59 252.41 80.47C252.783 79.35 253.32 78.3875 254.02 77.5825C254.732 76.7658 255.601 76.13 256.627 75.675C257.666 75.22 258.856 74.9925 260.197 74.9925C261.446 74.9925 262.542 75.1967 263.487 75.605C264.444 76.0017 265.29 76.5675 266.025 77.3025L265.202 78.4225ZM281.666 88.73C282.238 89.5 282.862 90.0425 283.539 90.3575C284.216 90.6725 284.974 90.83 285.814 90.83C287.471 90.83 288.742 90.2408 289.629 89.0625C290.516 87.8842 290.959 86.2042 290.959 84.0225C290.959 82.8675 290.854 81.8758 290.644 81.0475C290.446 80.2192 290.154 79.5425 289.769 79.0175C289.384 78.4808 288.911 78.09 288.351 77.845C287.791 77.6 287.156 77.4775 286.444 77.4775C285.429 77.4775 284.536 77.7108 283.766 78.1775C283.008 78.6442 282.308 79.3033 281.666 80.155V88.73ZM281.509 78.02C282.256 77.0983 283.119 76.3575 284.099 75.7975C285.079 75.2375 286.199 74.9575 287.459 74.9575C288.486 74.9575 289.413 75.1558 290.241 75.5525C291.07 75.9375 291.776 76.515 292.359 77.285C292.942 78.0433 293.391 78.9883 293.706 80.12C294.021 81.2517 294.179 82.5525 294.179 84.0225C294.179 85.3292 294.004 86.5483 293.654 87.68C293.304 88.8 292.796 89.7742 292.131 90.6025C291.478 91.4192 290.673 92.0667 289.716 92.545C288.771 93.0117 287.704 93.245 286.514 93.245C285.429 93.245 284.496 93.0642 283.714 92.7025C282.944 92.3292 282.261 91.8158 281.666 91.1625V99.0025H278.534V75.2725H280.406C280.85 75.2725 281.124 75.4883 281.229 75.92L281.509 78.02ZM301.111 78.825C301.671 77.6117 302.359 76.6667 303.176 75.99C303.992 75.3017 304.99 74.9575 306.168 74.9575C306.541 74.9575 306.897 74.9983 307.236 75.08C307.586 75.1617 307.895 75.29 308.163 75.465L307.936 77.7925C307.866 78.0842 307.691 78.23 307.411 78.23C307.247 78.23 307.008 78.195 306.693 78.125C306.378 78.055 306.022 78.02 305.626 78.02C305.066 78.02 304.564 78.1017 304.121 78.265C303.689 78.4283 303.298 78.6733 302.948 79C302.61 79.315 302.301 79.7117 302.021 80.19C301.752 80.6567 301.507 81.1933 301.286 81.8V93H298.153V75.2725H299.938C300.276 75.2725 300.51 75.3367 300.638 75.465C300.766 75.5933 300.854 75.815 300.901 76.13L301.111 78.825ZM317.657 74.9925C318.952 74.9925 320.118 75.2083 321.157 75.64C322.195 76.0717 323.082 76.6842 323.817 77.4775C324.552 78.2708 325.112 79.2333 325.497 80.365C325.893 81.485 326.092 82.7392 326.092 84.1275C326.092 85.5275 325.893 86.7875 325.497 87.9075C325.112 89.0275 324.552 89.9842 323.817 90.7775C323.082 91.5708 322.195 92.1833 321.157 92.615C320.118 93.035 318.952 93.245 317.657 93.245C316.35 93.245 315.172 93.035 314.122 92.615C313.083 92.1833 312.197 91.5708 311.462 90.7775C310.727 89.9842 310.161 89.0275 309.764 87.9075C309.379 86.7875 309.187 85.5275 309.187 84.1275C309.187 82.7392 309.379 81.485 309.764 80.365C310.161 79.2333 310.727 78.2708 311.462 77.4775C312.197 76.6842 313.083 76.0717 314.122 75.64C315.172 75.2083 316.35 74.9925 317.657 74.9925ZM317.657 90.8125C319.407 90.8125 320.713 90.2292 321.577 89.0625C322.44 87.8842 322.872 86.245 322.872 84.145C322.872 82.0333 322.44 80.3883 321.577 79.21C320.713 78.0317 319.407 77.4425 317.657 77.4425C316.77 77.4425 315.994 77.5942 315.329 77.8975C314.676 78.2008 314.128 78.6383 313.684 79.21C313.253 79.7817 312.926 80.4875 312.704 81.3275C312.494 82.1558 312.389 83.095 312.389 84.145C312.389 86.245 312.821 87.8842 313.684 89.0625C314.559 90.2292 315.883 90.8125 317.657 90.8125ZM341.593 79.49C341.009 78.7083 340.379 78.1658 339.703 77.8625C339.026 77.5475 338.268 77.39 337.428 77.39C335.783 77.39 334.517 77.9792 333.63 79.1575C332.744 80.3358 332.3 82.0158 332.3 84.1975C332.3 85.3525 332.399 86.3442 332.598 87.1725C332.796 87.9892 333.088 88.6658 333.473 89.2025C333.858 89.7275 334.33 90.1125 334.89 90.3575C335.45 90.6025 336.086 90.725 336.798 90.725C337.824 90.725 338.717 90.4917 339.475 90.025C340.245 89.5583 340.951 88.8992 341.593 88.0475V79.49ZM344.708 67.2225V93H342.853C342.409 93 342.129 92.7842 342.013 92.3525L341.733 90.2C340.974 91.11 340.111 91.845 339.143 92.405C338.174 92.965 337.054 93.245 335.783 93.245C334.768 93.245 333.846 93.0525 333.018 92.6675C332.189 92.2708 331.484 91.6933 330.9 90.935C330.317 90.1767 329.868 89.2317 329.553 88.1C329.238 86.9683 329.08 85.6675 329.08 84.1975C329.08 82.8908 329.255 81.6775 329.605 80.5575C329.955 79.4258 330.457 78.4458 331.11 77.6175C331.764 76.7892 332.563 76.1417 333.508 75.675C334.464 75.1967 335.538 74.9575 336.728 74.9575C337.813 74.9575 338.74 75.1442 339.51 75.5175C340.292 75.8792 340.986 76.3867 341.593 77.04V67.2225H344.708ZM364.205 75.2725V93H362.35C361.907 93 361.627 92.7842 361.51 92.3525L361.265 90.445C360.495 91.2967 359.632 91.985 358.675 92.51C357.718 93.0233 356.622 93.28 355.385 93.28C354.417 93.28 353.559 93.1225 352.813 92.8075C352.078 92.4808 351.459 92.0258 350.958 91.4425C350.456 90.8592 350.077 90.1533 349.82 89.325C349.575 88.4967 349.453 87.5808 349.453 86.5775V75.2725H352.568V86.5775C352.568 87.9192 352.871 88.9575 353.478 89.6925C354.096 90.4275 355.035 90.795 356.295 90.795C357.217 90.795 358.074 90.5792 358.868 90.1475C359.673 89.7042 360.413 89.0975 361.09 88.3275V75.2725H364.205ZM381.482 78.4225C381.388 78.5508 381.295 78.65 381.202 78.72C381.108 78.79 380.98 78.825 380.817 78.825C380.642 78.825 380.449 78.755 380.239 78.615C380.029 78.4633 379.767 78.3 379.452 78.125C379.148 77.95 378.769 77.7925 378.314 77.6525C377.871 77.5008 377.323 77.425 376.669 77.425C375.794 77.425 375.024 77.5825 374.359 77.8975C373.694 78.2008 373.134 78.6442 372.679 79.2275C372.236 79.8108 371.898 80.5167 371.664 81.345C371.443 82.1733 371.332 83.1008 371.332 84.1275C371.332 85.2008 371.454 86.1575 371.699 86.9975C371.944 87.8258 372.288 88.5258 372.732 89.0975C373.187 89.6575 373.729 90.0892 374.359 90.3925C375.001 90.6842 375.718 90.83 376.512 90.83C377.27 90.83 377.894 90.7425 378.384 90.5675C378.874 90.3808 379.277 90.1767 379.592 89.955C379.918 89.7333 380.187 89.535 380.397 89.36C380.618 89.1733 380.834 89.08 381.044 89.08C381.301 89.08 381.499 89.1792 381.639 89.3775L382.514 90.515C382.129 90.9933 381.692 91.4017 381.202 91.74C380.712 92.0783 380.181 92.3642 379.609 92.5975C379.049 92.8192 378.46 92.9825 377.842 93.0875C377.223 93.1925 376.593 93.245 375.952 93.245C374.843 93.245 373.811 93.0408 372.854 92.6325C371.909 92.2242 371.087 91.635 370.387 90.865C369.687 90.0833 369.138 89.1267 368.742 87.995C368.345 86.8633 368.147 85.5742 368.147 84.1275C368.147 82.8092 368.328 81.59 368.689 80.47C369.063 79.35 369.599 78.3875 370.299 77.5825C371.011 76.7658 371.88 76.13 372.907 75.675C373.945 75.22 375.135 74.9925 376.477 74.9925C377.725 74.9925 378.822 75.1967 379.767 75.605C380.723 76.0017 381.569 76.5675 382.304 77.3025L381.482 78.4225ZM391.301 93.28C389.901 93.28 388.821 92.8892 388.063 92.1075C387.316 91.3258 386.943 90.2 386.943 88.73V77.88H384.808C384.621 77.88 384.464 77.8275 384.336 77.7225C384.207 77.6058 384.143 77.4308 384.143 77.1975V75.955L387.048 75.5875L387.766 70.11C387.801 69.935 387.876 69.795 387.993 69.69C388.121 69.5733 388.285 69.515 388.483 69.515H390.058V75.6225H395.186V77.88H390.058V88.52C390.058 89.2667 390.239 89.8208 390.601 90.1825C390.962 90.5442 391.429 90.725 392.001 90.725C392.327 90.725 392.607 90.6842 392.841 90.6025C393.086 90.5092 393.296 90.41 393.471 90.305C393.646 90.2 393.791 90.1067 393.908 90.025C394.036 89.9317 394.147 89.885 394.241 89.885C394.404 89.885 394.55 89.9842 394.678 90.1825L395.588 91.67C395.051 92.1717 394.404 92.5683 393.646 92.86C392.887 93.14 392.106 93.28 391.301 93.28ZM408.727 78.195C408.587 78.4517 408.371 78.58 408.08 78.58C407.905 78.58 407.706 78.5158 407.485 78.3875C407.263 78.2592 406.989 78.1192 406.662 77.9675C406.347 77.8042 405.968 77.6583 405.525 77.53C405.081 77.39 404.556 77.32 403.95 77.32C403.425 77.32 402.952 77.39 402.532 77.53C402.112 77.6583 401.75 77.8392 401.447 78.0725C401.155 78.3058 400.928 78.58 400.765 78.895C400.613 79.1983 400.537 79.5308 400.537 79.8925C400.537 80.3475 400.665 80.7267 400.922 81.03C401.19 81.3333 401.54 81.5958 401.972 81.8175C402.404 82.0392 402.894 82.2375 403.442 82.4125C403.99 82.5758 404.55 82.7567 405.122 82.955C405.705 83.1417 406.271 83.3517 406.82 83.585C407.368 83.8183 407.858 84.11 408.29 84.46C408.721 84.81 409.065 85.2417 409.322 85.755C409.59 86.2567 409.725 86.8633 409.725 87.575C409.725 88.3917 409.579 89.15 409.287 89.85C408.995 90.5383 408.564 91.1392 407.992 91.6525C407.42 92.1542 406.72 92.5508 405.892 92.8425C405.064 93.1342 404.107 93.28 403.022 93.28C401.785 93.28 400.665 93.0817 399.662 92.685C398.659 92.2767 397.807 91.7575 397.107 91.1275L397.842 89.9375C397.935 89.7858 398.046 89.6692 398.175 89.5875C398.303 89.5058 398.466 89.465 398.665 89.465C398.875 89.465 399.096 89.5467 399.33 89.71C399.563 89.8733 399.843 90.0542 400.17 90.2525C400.508 90.4508 400.916 90.6317 401.395 90.795C401.873 90.9583 402.468 91.04 403.18 91.04C403.786 91.04 404.317 90.9642 404.772 90.8125C405.227 90.6492 405.606 90.4333 405.91 90.165C406.213 89.8967 406.435 89.5875 406.575 89.2375C406.726 88.8875 406.802 88.5142 406.802 88.1175C406.802 87.6275 406.668 87.225 406.4 86.91C406.143 86.5833 405.799 86.3092 405.367 86.0875C404.935 85.8542 404.44 85.6558 403.88 85.4925C403.331 85.3175 402.765 85.1367 402.182 84.95C401.61 84.7633 401.045 84.5533 400.485 84.32C399.936 84.075 399.446 83.7717 399.015 83.41C398.583 83.0483 398.233 82.605 397.965 82.08C397.708 81.5433 397.58 80.8958 397.58 80.1375C397.58 79.4608 397.72 78.8133 398 78.195C398.28 77.565 398.688 77.0167 399.225 76.55C399.761 76.0717 400.42 75.6925 401.202 75.4125C401.984 75.1325 402.876 74.9925 403.88 74.9925C405.046 74.9925 406.09 75.1792 407.012 75.5525C407.945 75.9142 408.75 76.4158 409.427 77.0575L408.727 78.195Z" fill="black"/>
</svg>
