<svg display="none" xmlns="http://www.w3.org/2000/svg"> 
	<symbol id="manufacture" viewBox="0 0 488 488">
		<g><g><path d="M483.82,350.32l-24-112c-0.639-2.984-2.922-5.342-5.883-6.078l-61.844-15.469L364,188.687V63.752 c5.167-6.843,7.974-15.178,8-23.753c0.057-22.034-17.758-39.942-39.792-40c-12.846-0.033-24.923,6.121-32.445,16.534 L67.469,32.016l0.001,0.011c-26.461,0.245-47.712,21.894-47.467,48.355c0.125,13.492,5.933,26.307,15.998,35.294V376H12 c-4.416-0.003-7.997,3.575-8,7.991c0,0.003,0,0.006,0,0.009v88c-0.003,4.416,3.575,7.997,7.991,8c0.003,0,0.006,0,0.009,0h112 c4.416,0.003,7.997-3.575,8-7.991c0-0.003,0-0.006,0-0.009v-88c0.003-4.416-3.575-7.997-7.991-8c-0.003,0-0.006,0-0.009,0h-24 V118.42l200-44.444v114.711l-27.719,27.711l-61.273,7.664c-3.416,0.428-6.175,2.992-6.852,6.367l-24,120 c-0.709,3.538,1.038,7.113,4.266,8.727l48,24c3.953,1.977,8.76,0.374,10.737-3.579c1.01-2.019,1.12-4.371,0.302-6.476 l-14.445-37.18l21.328-57.984L317.695,248h28.609l67.351,29.938l21.328,57.984l-14.445,37.18 c-1.599,4.121,0.446,8.758,4.568,10.357c2.103,0.816,4.453,0.706,6.472-0.302l48-24 C482.843,357.524,484.588,353.888,483.82,350.32z M20,464v-52.524L53.425,464H20z M116,464H82.575L116,411.476V464z M109.425,392 L68,457.102L26.575,392H109.425z M52,376V125.2c10.34,3.734,21.66,3.734,32,0V376H52z M68,112c-17.673,0-32-14.327-32-32 s14.327-32,32-32s32,14.327,32,32C99.982,97.666,85.666,111.982,68,112z M111.876,99.385c8.122-18.259,4.024-39.643-10.273-53.605 l191.101-12.736C292.265,35.338,292.03,37.665,292,40c0.044,6.395,1.641,12.683,4.653,18.324L111.876,99.385z M332,16 c13.255,0,24,10.745,24,24s-10.745,24-24,24s-24-10.745-24-24C308.014,26.751,318.751,16.014,332,16z M348,76.609V184h-32V76.609 C326.188,81.13,337.812,81.13,348,76.609z M442.961,359.57L451,338.898c0.703-1.817,0.719-3.828,0.047-5.656l-23.539-64 c-0.745-2.031-2.281-3.675-4.258-4.555l-72-32c-1.024-0.453-2.131-0.687-3.25-0.688h-32c-1.119,0-2.226,0.234-3.25,0.688l-72,32 c-1.977,0.88-3.513,2.523-4.258,4.555l-23.539,64c-0.672,1.828-0.656,3.839,0.047,5.656l8.039,20.672l-23.992-11.992 l21.664-108.352l58.281-7.289c1.765-0.22,3.407-1.023,4.664-2.281L311.313,200h41.375l29.656,29.656 c1.027,1.024,2.312,1.751,3.719,2.102l59.156,14.797l21.664,101.063L442.961,359.57z" ></path></g></g><g><g><circle cx="68" cy="80" r="16" ></circle></g></g><g><g><path d="M406.758,336.532l-9.594-4.234c-0.328-1.148-0.672-2.273-1.047-3.375l5.352-9.227c1.414-2.443,1.438-5.449,0.063-7.914 c-2.939-5.24-6.444-10.142-10.453-14.617c-1.937-2.184-4.915-3.132-7.758-2.469l-10.078,2.305 c-0.852-0.656-1.719-1.297-2.602-1.914l-0.984-10.727c-0.293-3.153-2.415-5.837-5.414-6.852l-15.141-5.094 c-3.083-1.036-6.486-0.104-8.609,2.359l-7.102,8.234h-2.781l-7.086-8.227c-2.121-2.466-5.525-3.402-8.609-2.367l-15.148,5.094 c-3.003,1.011-5.128,3.697-5.422,6.852l-0.984,10.727c-0.883,0.625-1.75,1.266-2.594,1.914l-10.086-2.305 c-2.843-0.66-5.819,0.287-7.758,2.469c-4.005,4.475-7.51,9.374-10.453,14.609c-1.375,2.467-1.351,5.476,0.063,7.922l5.352,9.227 c-0.375,1.102-0.719,2.227-1.047,3.375l-9.594,4.234c-2.902,1.277-4.775,4.149-4.773,7.32v16.297 c-0.002,3.171,1.871,6.043,4.773,7.32l9.594,4.234c0.328,1.148,0.672,2.273,1.047,3.375l-5.352,9.227 c-1.577,2.721-1.415,6.114,0.414,8.672l9.438,13.188c1.872,2.634,5.15,3.875,8.297,3.141L290.758,407 c0.852,0.656,1.719,1.297,2.602,1.914l0.984,10.727c0.293,3.153,2.415,5.837,5.414,6.852l15.141,5.094 c3.083,1.037,6.486,0.105,8.609-2.359l7.102-8.234h2.781l7.086,8.227c2.123,2.464,5.525,3.399,8.609,2.367l15.148-5.094 c3.003-1.011,5.128-3.697,5.422-6.852l0.984-10.727c0.883-0.625,1.75-1.266,2.594-1.914l10.086,2.305 c2.843,0.664,5.821-0.284,7.758-2.469c4.005-4.474,7.507-9.373,10.445-14.609c1.381-2.465,1.361-5.476-0.055-7.922l-5.352-9.227 c0.375-1.102,0.719-2.227,1.047-3.375l9.594-4.234c2.902-1.277,4.775-4.149,4.773-7.32v-16.297 C411.533,340.681,409.66,337.809,406.758,336.532z M387.148,358.633c-2.318,1.019-4.014,3.077-4.57,5.547 c-0.651,2.929-1.545,5.798-2.672,8.578c-0.954,2.301-0.78,4.915,0.469,7.07l4.875,8.406c-0.977,1.492-2.021,2.953-3.133,4.383 l-9.141-2.094c-2.51-0.59-5.15,0.077-7.078,1.789c-2.214,1.945-4.587,3.701-7.094,5.25c-2.13,1.323-3.518,3.566-3.75,6.063 l-0.859,9.359l-5.109,1.719l-5.969-6.93c-1.52-1.765-3.733-2.78-6.062-2.781h-10.109c-2.325,0-4.536,1.013-6.055,2.773 l-5.984,6.938l-5.102-1.719l-0.859-9.359c-0.233-2.5-1.624-4.747-3.758-6.07c-2.506-1.544-4.877-3.297-7.086-5.242 c-1.929-1.711-4.568-2.378-7.078-1.789l-8.727,2l-3.336-4.656l4.664-8.039c1.249-2.155,1.422-4.769,0.469-7.07 c-1.127-2.78-2.021-5.65-2.672-8.578c-0.557-2.47-2.253-4.528-4.57-5.547l-8.383-3.695v-5.875l8.383-3.695 c2.318-1.019,4.014-3.077,4.57-5.547c0.651-2.929,1.545-5.798,2.672-8.578c0.954-2.301,0.78-4.915-0.469-7.07l-4.875-8.406 c0.977-1.492,2.021-2.953,3.133-4.383l9.141,2.094c2.51,0.585,5.148-0.082,7.078-1.789c2.214-1.945,4.587-3.701,7.094-5.25 c2.13-1.323,3.518-3.566,3.75-6.063l0.859-9.359l5.109-1.719l5.969,6.93c1.52,1.765,3.733,2.78,6.063,2.781h10.109 c2.325,0,4.536-1.013,6.055-2.773l5.984-6.938l5.102,1.719l0.859,9.359c0.233,2.5,1.624,4.747,3.758,6.07 c2.506,1.544,4.877,3.297,7.086,5.242c1.93,1.708,4.568,2.375,7.078,1.789l9.141-2.094c1.109,1.43,2.154,2.891,3.133,4.383 l-4.875,8.406c-1.249,2.155-1.422,4.769-0.469,7.07c1.127,2.78,2.021,5.65,2.672,8.578c0.557,2.47,2.253,4.528,4.57,5.547 l8.383,3.695l0,5.875L387.148,358.633z" ></path></g></g><g><g><path d="M332,312c-22.091,0-40,17.909-40,40c0,22.091,17.909,40,40,40c22.091,0,40-17.909,40-40 C371.974,329.919,354.081,312.026,332,312z M332,376c-13.255,0-24-10.745-24-24s10.745-24,24-24s24,10.745,24,24 C355.986,365.249,345.249,375.986,332,376z" ></path></g></g><g><g><rect x="436" y="472" width="16" height="16" ></rect></g></g><g><g><rect x="468" y="472" width="16" height="16" ></rect></g></g>
	</symbol>

	<symbol id="money" viewBox="0 0 512 512">
		<g><g><path d="M196,60c-5.52,0-10,4.48-10,10s4.48,10,10,10s10-4.48,10-10S201.52,60,196,60z" ></path></g></g><g><g><path d="M256,140c-5.514,0-10-4.486-10-10c0-5.514,4.486-10,10-10c3.542,0,7.282,1.807,10.815,5.227 c3.971,3.841,10.3,3.736,14.141-0.232c3.84-3.969,3.736-10.3-0.232-14.141c-5.075-4.911-10.153-7.689-14.724-9.205V90 c0-5.523-4.478-10-10-10c-5.522,0-10,4.477-10,10v11.72c-11.639,4.128-20,15.243-20,28.28c0,16.542,13.458,30,30,30 c5.514,0,10,4.486,10,10c0,5.514-4.486,10-10,10c-4.272,0-8.884-2.687-12.985-7.565c-3.553-4.228-9.862-4.773-14.089-1.219 c-4.228,3.554-4.773,9.862-1.22,14.089c5.346,6.359,11.632,10.79,18.294,13.024V210c0,5.523,4.478,10,10,10 c5.522,0,10-4.477,10-10v-11.72c11.639-4.128,20-15.243,20-28.28C286,153.458,272.542,140,256,140z" ></path></g></g><g><g><path d="M472,146c-22.056,0-40,17.944-40,40v71.27c-13.284-3.421-27.943,0.112-38.281,10.449l-67.065,67.065 C317.204,344.221,312,356.781,312,370.15V429h-10c-5.522,0-10,4.477-10,10v63c0,5.523,4.478,10,10,10h140c5.522,0,10-4.477,10-10 v-63c0-5.523-4.478-10-10-10h-10v-4.72c0-2.629,1.068-5.206,2.932-7.069l62.42-62.42C506.798,345.344,512,332.786,512,319.43V186 C512,163.944,494.056,146,472,146z M432,492H312v-43h120V492z M492,319.43c0,8.014-3.122,15.55-8.791,21.219l-62.42,62.42 c-5.586,5.586-8.789,13.317-8.789,21.211V429h-80v-58.85c0-8.022,3.12-15.556,8.791-21.219l67.07-67.07 c7.506-7.507,19.564-7.844,27.45-0.768c0.057,0.05,0.114,0.101,0.172,0.15c0.228,0.195,0.442,0.405,0.658,0.621 C439.919,285.639,442,290.659,442,296s-2.081,10.361-5.861,14.139l-49.69,49.69c-3.905,3.905-3.905,10.237,0,14.143 c3.906,3.905,10.236,3.906,14.143,0l49.688-49.687C457.837,316.731,462,306.687,462,296c0-9.84-3.538-19.132-10-26.44V186 c0-11.028,8.972-20,20-20s20,8.972,20,20V319.43z" ></path></g></g><g><g><path d="M210,429h-10v-58.85c0-13.369-5.204-25.929-14.648-35.361l-67.07-67.07C107.943,257.38,93.284,253.848,80,257.27V186 c0-22.056-17.944-40-40-40c-22.056,0-40,17.944-40,40v133.43c0,13.356,5.202,25.914,14.648,35.361l62.42,62.419 c1.864,1.864,2.932,4.44,2.932,7.07V429H70c-5.522,0-10,4.477-10,10v63c0,5.523,4.478,10,10,10h140c5.522,0,10-4.477,10-10v-63 C220,433.477,215.522,429,210,429z M28.791,340.65C23.122,334.98,20,327.444,20,319.43V186c0-11.028,8.972-20,20-20 s20,8.972,20,20v83.559c-6.462,7.308-10,16.599-10,26.441c0,10.687,4.163,20.731,11.719,28.281l50,50 c3.906,3.905,10.236,3.905,14.143,0c3.905-3.905,3.905-10.237,0-14.143l-50.003-50.003C72.081,306.361,70,301.341,70,296 s2.081-10.361,5.856-14.135c0.218-0.217,0.433-0.427,0.66-0.622l0.172-0.15c7.885-7.076,19.944-6.738,27.45,0.768l67.075,67.074 c5.666,5.659,8.786,13.192,8.786,21.214V429h-80v-4.72c0.001-7.894-3.202-15.625-8.788-21.211L28.791,340.65z M200,492H80v-43h120 V492z" ></path></g></g><g><g><path d="M256,0c-82.71,0-150,67.29-150,150s67.29,150,150,150s150-67.29,150-150S338.71,0,256,0z M256,280 c-71.683,0-130-58.318-130-130S184.317,20,256,20s130,58.318,130,130S327.683,280,256,280z" ></path></g></g><g><g><path d="M325.054,64.369c-26.021-21.01-60.077-28.934-93.421-21.745c-5.399,1.164-8.832,6.484-7.668,11.883 c1.164,5.398,6.485,8.828,11.883,7.667c27.409-5.91,55.345,0.561,76.643,17.755C333.786,97.124,346,122.663,346,150 c0,49.626-40.374,90-90,90c-49.626,0-90-40.374-90-90c0-14.824,3.68-29.518,10.642-42.492c2.611-4.866,0.783-10.928-4.083-13.54 c-4.867-2.612-10.93-0.783-13.54,4.083C150.502,113.924,146,131.887,146,150c0,60.654,49.346,110,110,110s110-49.346,110-110 C366,116.589,351.076,85.378,325.054,64.369z" ></path></g></g>
	</symbol>

	<symbol id="guarantee" viewBox="0 0 512 512" >
		<g><g><path d="M318.168,0H10.66v512h383.992V76.5L318.168,0z M319.996,32l42.656,42.664h-42.656V32z M373.34,490.656H31.996V21.336 h266.656V96h74.688V490.656z" ></path></g></g><g><g><path d="M319.996,373.344h-64c-5.891,0-10.664,4.766-10.664,10.656s4.773,10.656,10.664,10.656h64 c5.891,0,10.656-4.766,10.656-10.656S325.887,373.344,319.996,373.344z" ></path></g></g><g><g><path d="M319.996,192H85.332c-5.898,0-10.672,4.773-10.672,10.664s4.773,10.672,10.672,10.672h234.664 c5.891,0,10.656-4.781,10.656-10.672S325.887,192,319.996,192z" ></path></g></g><g><g><path d="M319.996,256H85.332c-5.898,0-10.672,4.773-10.672,10.664c0,5.898,4.773,10.68,10.672,10.68h234.664 c5.891,0,10.656-4.781,10.656-10.68C330.652,260.773,325.887,256,319.996,256z" ></path></g></g><g><g><path d="M202.66,128H85.332c-5.898,0-10.672,4.773-10.672,10.664s4.774,10.672,10.672,10.672H202.66 c5.891,0,10.672-4.781,10.672-10.672S208.551,128,202.66,128z"></path></g></g><g><g><path d="M127.996,320c-29.453,0-53.336,23.875-53.336,53.344c0,17.438,8.383,32.938,21.336,42.656v53.344l32-10.688l32,10.688V416 c12.953-9.719,21.336-25.219,21.336-42.656C181.332,343.875,157.449,320,127.996,320z M138.66,439.734l-3.922-1.297l-6.742-2.25 l-6.75,2.25l-3.914,1.297v-14.141c3.445,0.703,7.008,1.062,10.664,1.062s7.219-0.359,10.664-1.062V439.734z M127.996,405.344 c-17.648,0-32-14.375-32-32c0-17.656,14.352-32,32-32s32,14.344,32,32C159.996,390.969,145.645,405.344,127.996,405.344z" ></path></g></g><g><g><path d="M501.34,128c0-23.57-19.109-42.672-42.688-42.672c-23.562,0-42.656,19.102-42.656,42.672v288h13.234l-13.234,46.219 l42.656,28.438l42.688-28.438L488.09,416h13.25V128z M458.652,465.031l-17.859-11.906L451.418,416h14.484l10.625,37.125 L458.652,465.031z M479.996,394.656H437.34V128c0-11.766,9.562-21.336,21.312-21.336c11.781,0,21.344,9.57,21.344,21.336V394.656z " ></path></g></g><g><g><path d="M127.996,362.656c-5.891,0-10.664,4.781-10.664,10.688c0,5.875,4.773,10.656,10.664,10.656 c5.891,0,10.664-4.781,10.664-10.656C138.66,367.438,133.887,362.656,127.996,362.656z" ></path></g></g>
	</symbol>

	<symbol id="speed" viewBox="0 0 512.005 512.005"  >
		<g><g><path d="M162.677,199.606c-1.365-2.679-4.036-4.437-7.031-4.633l-71.786-4.787c-3.72-0.367-7.159,1.937-8.516,5.401 L23.593,327.845c-1.391,3.55-0.256,7.586,2.782,9.898c1.519,1.16,3.345,1.741,5.162,1.741c1.8,0,3.601-0.563,5.12-1.706 l42.954-32.211l25.01,5c4.079,0.811,8.157-1.425,9.642-5.324c13.431-35.181,29.6-67.895,48.039-97.222 C163.898,205.476,164.043,202.276,162.677,199.606z M100.934,292.425l-21.724-4.343c-2.372-0.469-4.847,0.094-6.792,1.544 l-22.006,16.502l38.542-98.502l51.521,3.43C125.628,236.186,112.368,263.473,100.934,292.425z" ></path></g></g><g><g><path d="M321.822,428.156l-4.787-71.795c-0.205-3.004-1.963-5.674-4.642-7.04c-2.671-1.365-5.871-1.229-8.413,0.375 c-29.336,18.439-62.042,34.609-97.222,48.039c-3.891,1.476-6.144,5.555-5.324,9.642l5,25.01l-32.211,42.945 c-2.287,3.055-2.278,7.253,0.034,10.291c1.647,2.167,4.181,3.37,6.792,3.37c1.041,0,2.091-0.196,3.114-0.572l132.258-51.751 C319.885,435.315,322.069,431.867,321.822,428.156z M205.87,461.579l16.502-22.006c1.451-1.937,2.014-4.411,1.536-6.792 l-4.343-21.716c28.96-11.434,56.239-24.694,81.368-39.541l3.439,51.512L205.87,461.579z" ></path></g></g><g><g><path d="M247.45,256.007h-57.494c-3.097,0-5.947,1.681-7.458,4.386l-72.162,129.664c-1.877,3.379-1.246,7.611,1.536,10.291 c1.63,1.57,3.771,2.389,5.922,2.389c1.519,0,3.046-0.401,4.411-1.237l129.664-78.467c2.551-1.544,4.113-4.309,4.113-7.295V264.54 C255.983,259.83,252.16,256.007,247.45,256.007z M238.918,310.933l-98.033,59.328l54.081-97.18v-0.009h43.952V310.933z" ></path></g></g><g><g><path d="M511.574,8.224c-0.35-4.155-3.643-7.449-7.799-7.799c-2.833-0.222-283.825-19.839-405.451,298.724 c-1.203,3.149-0.444,6.698,1.937,9.079l40.573,40.573c1.903,1.903,4.565,2.773,7.236,2.415c2.654-0.384,4.975-1.988,6.272-4.335 l40.65-73.808h43.927v37.962l-74.252,46.879c-2.193,1.391-3.635,3.695-3.925,6.272c-0.29,2.577,0.614,5.145,2.449,6.98 l40.573,40.573c1.63,1.63,3.806,2.5,6.033,2.5c1.024,0,2.056-0.179,3.046-0.563C531.421,292.041,511.813,11.049,511.574,8.224z M466.811,159.613c-29.942,74.081-98.46,174.794-254.908,236.136l-29.097-29.097l69.201-43.688 c2.474-1.57,3.976-4.292,3.976-7.219v-51.197c0-4.71-3.823-8.533-8.533-8.533h-57.511c-3.114,0-5.973,1.698-7.475,4.42 l-37.604,68.279l-28.61-28.619C223.021,27.713,450.607,16.569,494.849,17.192C495.165,37.091,493.339,93.97,466.811,159.613z" ></path></g></g><g><g><path d="M146.166,376.874c-1.852-2.457-4.804-3.652-7.697-3.345c0.299-2.901-0.896-5.845-3.345-7.697 c-12.867-9.727-29.472-12.961-45.573-8.883c-17.091,4.343-31.068,15.999-38.338,31.998L0.768,499.933 c-1.476,3.242-0.785,7.057,1.732,9.565c1.63,1.638,3.814,2.5,6.033,2.5c1.195,0,2.398-0.256,3.533-0.768l110.986-50.454 c15.99-7.261,27.646-21.238,31.989-38.329C159.128,406.363,155.894,389.75,146.166,376.874z M138.504,418.249 c-3.055,12.04-11.263,21.878-22.509,26.998l-90.277,41.034l41.034-90.285c5.111-11.246,14.958-19.455,26.998-22.509 c3.166-0.802,6.348-1.195,9.488-1.195c5.316,0,10.512,1.135,15.248,3.345l-8.123,14.378c-1.886,3.336-1.314,7.526,1.399,10.231 c2.713,2.722,6.903,3.285,10.231,1.399l14.378-8.132C139.869,401.039,140.663,409.733,138.504,418.249z" ></path></g></g><g><g><path d="M511.574,8.233c-0.35-4.155-3.644-7.449-7.799-7.799c-3.328-0.265-82.427-6.255-175.451,36.597 c-2.534,1.16-4.335,3.498-4.83,6.246s0.393,5.563,2.364,7.534l135.33,135.33c1.613,1.613,3.789,2.5,6.033,2.5 c0.503,0,1.007-0.043,1.51-0.128c2.748-0.495,5.077-2.295,6.246-4.83C517.837,90.659,511.847,11.552,511.574,8.233z M464.456,165.261L346.738,47.543c68.1-28.747,127.735-30.727,148.12-30.385C495.199,37.56,493.279,97.008,464.456,165.261z" ></path></g></g><g><g><path d="M376.841,135.158c-28.696-28.696-75.378-28.696-104.074,0s-28.696,75.378,0,104.074 c14.344,14.352,33.193,21.52,52.033,21.52c18.849,0,37.689-7.176,52.041-21.52C405.537,210.536,405.537,163.853,376.841,135.158z M364.776,227.166c-22.04,22.04-57.903,22.04-79.943,0c-22.04-22.04-22.04-57.903,0-79.943 c11.016-11.016,25.496-16.528,39.968-16.528s28.952,5.512,39.976,16.528C386.816,169.263,386.816,205.126,364.776,227.166z" ></path></g></g><g><g><path d="M341.763,204.162c-9.352,9.369-24.574,9.36-33.935,0c-9.352-9.36-9.352-24.574,0-33.935c9.352-9.352,24.574-9.36,33.935,0 c3.328,3.336,8.738,3.336,12.065,0c3.336-3.336,3.336-8.729,0-12.065c-15.999-16.007-42.058-16.007-58.065,0 c-16.008,16.007-16.008,42.058,0,58.065c8.004,8.004,18.525,12.006,29.037,12.006c10.521,0,21.033-4.002,29.028-12.006 c3.336-3.336,3.336-8.729,0-12.065C350.5,200.826,345.091,200.826,341.763,204.162z" ></path></g></g>
	</symbol>

</svg>