<svg display="none" xmlns="http://www.w3.org/2000/svg"> 
	<symbol id="telegram" viewBox="0 0 24 24">
		<g>
			<circle cx="12" cy="12"  r="12">
			</circle>
			<path d="m5.491 11.74 11.57-4.461c.537-.194 1.006.131.832.943l.001-.001-1.97 9.281c-.146.658-.537.818-1.084.508l-3-2.211-1.447 1.394c-.16.16-.295.295-.605.295l.213-3.053 5.56-5.023c.242-.213-.054-.333-.373-.121l-6.871 4.326-2.962-.924c-.643-.204-.657-.643.136-.953z" fill="#fff"></path>
		</g>
	</symbol>

	<symbol id="whatsapp" viewBox="0 0 418.135 418.135">
		<g>
			<path d="M198.929,0.242C88.5,5.5,1.356,97.466,1.691,208.02c0.102,33.672,8.231,65.454,22.571,93.536 L2.245,408.429c-1.191,5.781,4.023,10.843,9.766,9.483l104.723-24.811c26.905,13.402,57.125,21.143,89.108,21.631 c112.869,1.724,206.982-87.897,210.5-200.724C420.113,93.065,320.295-5.538,198.929,0.242z M323.886,322.197 c-30.669,30.669-71.446,47.559-114.818,47.559c-25.396,0-49.71-5.698-72.269-16.935l-14.584-7.265l-64.206,15.212l13.515-65.607 l-7.185-14.07c-11.711-22.935-17.649-47.736-17.649-73.713c0-43.373,16.89-84.149,47.559-114.819 c30.395-30.395,71.837-47.56,114.822-47.56C252.443,45,293.218,61.89,323.887,92.558c30.669,30.669,47.559,71.445,47.56,114.817 C371.446,250.361,354.281,291.803,323.886,322.197z"></path><path d="M309.712,252.351l-40.169-11.534c-5.281-1.516-10.968-0.018-14.816,3.903l-9.823,10.008 c-4.142,4.22-10.427,5.576-15.909,3.358c-19.002-7.69-58.974-43.23-69.182-61.007c-2.945-5.128-2.458-11.539,1.158-16.218 l8.576-11.095c3.36-4.347,4.069-10.185,1.847-15.21l-16.9-38.223c-4.048-9.155-15.747-11.82-23.39-5.356 c-11.211,9.482-24.513,23.891-26.13,39.854c-2.851,28.144,9.219,63.622,54.862,106.222c52.73,49.215,94.956,55.717,122.449,49.057 c15.594-3.777,28.056-18.919,35.921-31.317C323.568,266.34,319.334,255.114,309.712,252.351z"></path>
		</g>
	</symbol>

	<symbol id="telephone" viewBox="0 0 28.872 28.872" >
		<g><path d="M3.263,3.105c0.168-0.112,0.32-0.261,0.51-0.339C4.89,2.302,6.157,2.26,7.341,1.984c1.512-0.349,4.455,6.606,2.574,7.21 c-0.699,0.219-2.904,0.551-3.486,0.99c-0.52,0.391-0.273,1.35,0.24,1.953c1.348,1.587,3.332,3.355,4.899,4.904h0.002 c0.041,0.041,0.087,0.087,0.13,0.131c0.043,0.043,0.09,0.086,0.131,0.129v0.001c1.549,1.567,3.315,3.553,4.903,4.901 c0.603,0.514,1.562,0.76,1.953,0.239c0.438-0.581,0.771-2.785,0.989-3.485c0.604-1.881,7.56,1.062,7.212,2.576 c-0.277,1.182-0.32,2.447-0.783,3.565c-0.078,0.189-0.229,0.34-0.34,0.511c-2.521,3.972-8.627,4.483-13.182,0.608 c-1.737-1.479-3.426-3.019-5.069-4.604l-0.009,0.009c-0.043-0.045-0.081-0.09-0.127-0.134c-0.043-0.045-0.088-0.085-0.133-0.127 l0.008-0.008c-1.584-1.644-3.123-3.331-4.604-5.07C-1.222,11.734-0.708,5.624,3.263,3.105z M27.753,12.215l1.113-11.106 c0.065-0.672-0.431-1.167-1.103-1.102L16.657,1.119c-0.673,0.066-0.832,0.514-0.354,0.992l3.013,3.012l-6.276,6.275 c-0.479,0.479-0.479,1.262,0,1.739l2.758,2.759c0.479,0.479,1.263,0.479,1.74,0l6.276-6.275l2.949,2.949 C27.241,13.048,27.688,12.889,27.753,12.215z"></path></g>
	</symbol>

</svg>