<svg display="none" xmlns="http://www.w3.org/2000/svg"> 

	<symbol id="builder" viewBox="0 0 511.996 511.996">
	<g><g><g><path d="M460.209,407.684l-1.812-0.516c-26.469-7.109-35.422-13.938-47.218-18.422c-28.031-10.688-42.156-19.375-49.25-25.562 l-6.031-44.938c1.844-2.5,3.656-5.078,5.438-7.688c25.688-12.594,29.203-32.311,24.094-48.654 c5.156-15.664,8.125-32.062,8.125-48.703c0-7.281-0.422-14.344-1.219-21.203h13h10.656c5.89,0,10.655-4.773,10.655-10.664 c0-5.891-4.766-10.672-10.655-10.672h-10.656c0-63.679-39.875-118.038-95.999-139.506v-9.82c0-4.055-2.312-7.758-5.938-9.555 C302.43,11.297,279.415,0,255.993,0s-46.445,11.297-47.414,11.781c-3.625,1.805-5.922,5.5-5.922,9.555l0.008,9.82 c-56.132,21.468-96.007,75.827-96.007,139.506H95.993c-5.89,0-10.664,4.781-10.664,10.672s4.774,10.664,10.664,10.664h10.664 h12.992c-0.797,6.859-1.211,13.922-1.211,21.203c0,16.641,2.961,33.039,8.109,48.703c-5.102,16.344-1.586,36.076,24.109,48.654 c1.766,2.609,3.578,5.188,5.438,7.688l-6.023,44.938c-7.102,6.188-21.219,14.875-49.273,25.562 c-11.789,4.484-20.742,11.312-47.21,18.422l-1.812,0.516c-24.093,7.969-40.304,30.312-40.304,55.531v48.781H213.33h42.664h42.656 h201.873v-48.781C500.521,437.996,484.303,415.652,460.209,407.684z M401.647,407.934l-24.969,24.969l-29.53-29.5l8.452-18.235 C369.241,394.652,386.928,402.262,401.647,407.934z M356.569,288.808c-6.546,4.219-19.577,9.703-44.358,11.984 c-1.359,0.109-2.766,0.188-4.172,0.188c-18.75,0-35.391-10.484-40.062-20.186c-1.734-3.609-2.703-8.297,3.25-15.734 c1.109-1.383,1.938-2.18,2.453-2.617c0.719,0.25,1.906,0.773,3.734,1.859c3.203,1.898,6.859,4.609,10.734,7.484 c11.719,8.68,26.281,19.49,44.656,19.49c7.766,0,15.312-1.969,22.452-5.811c4.126-2.217,7.641-4.779,10.485-7.655 C365.303,279.81,363.819,284.154,356.569,288.808z M329.133,323.231c-0.078,1.141-1.547,5.609-7.422,12.953 c-5.562,6.938-13.547,14.656-23.094,22.281c-8.75,7.016-18.484,13.656-27.391,18.719c-7.836,4.438-12.898,6.438-15.234,7.156 c-2.336-0.719-7.398-2.719-15.234-7.156c-8.906-5.062-18.64-11.703-27.398-18.719c-9.539-7.625-17.516-15.344-23.078-22.281 c-5.875-7.344-7.352-11.812-7.43-12.953c0-0.641,0.07-1.641,0.32-3.047c4.562,0.75,9.438,1.375,14.648,1.844 c2.039,0.188,4.078,0.281,6.125,0.281c19.977,0,40.156-8.688,52.046-21.719c11.892,13.031,32.079,21.719,52.048,21.719 c2.047,0,4.094-0.094,6.125-0.281c5.203-0.469,10.078-1.094,14.641-1.844C329.055,321.59,329.133,322.59,329.133,323.231z M127.993,170.662c0-34.186,13.313-66.327,37.492-90.507c10.945-10.945,23.523-19.648,37.188-25.914l0.008,41.805 c0.008,5.891,4.781,10.664,10.672,10.664c5.891-0.008,10.664-4.781,10.664-10.672l-0.023-67.726c7.82-3.07,20.453-6.977,32-6.977 c12.172,0,24.812,4.172,32,7v66.327c0,5.891,4.781,10.672,10.656,10.672c5.906,0,10.688-4.781,10.688-10.672V54.249 c13.656,6.258,26.219,14.969,37.156,25.906c24.187,24.18,37.499,56.32,37.499,90.507H127.993z M139.776,213.201 c0-7.258,0.469-14.328,1.375-21.203h229.684c0.906,6.875,1.375,13.945,1.375,21.203c0,8.203-0.875,16.586-2.562,25.023 c-3.781-2.977-7.594-4.703-10.844-4.703c-0.094,0-0.188,0-0.281,0c-16.562,0.508-24.53,17.695-24.53,17.695 c2.469-0.758,4.891-1.102,7.141-1.102c11.437,0,18.421,8.797,3.984,16.578c-4.219,2.281-8.312,3.242-12.312,3.242 c-21.906,0-40.641-29.047-59.719-29.047c-5.633-0.008-11.305,2.555-17.094,9.148c-5.789-6.594-11.461-9.148-17.102-9.148 c-19.07,0-37.804,29.047-59.718,29.047c-3.992,0-8.086-0.961-12.312-3.242c-14.414-7.781-7.445-16.578,3.992-16.578 c2.25,0,4.68,0.344,7.148,1.102c0,0-7.969-17.188-24.546-17.695c-0.086,0-0.18,0-0.273,0c-3.25,0-7.062,1.727-10.836,4.703 C140.651,229.786,139.776,221.404,139.776,213.201z M155.415,288.81c-7.258-4.654-8.734-8.998-9.172-10.998 c2.844,2.874,6.359,5.436,10.484,7.655c7.14,3.842,14.687,5.811,22.445,5.811c18.383,0,32.945-10.811,44.656-19.49 c3.875-2.875,7.539-5.586,10.742-7.484c1.828-1.086,3.023-1.609,3.727-1.859c0.531,0.438,1.359,1.234,2.461,2.617 c5.953,7.438,4.984,12.125,3.25,15.734c-4.672,9.701-21.312,20.186-40.062,20.186c-1.406,0-2.812-0.078-4.172-0.188 C174.993,298.513,161.969,293.028,155.415,288.81z M156.384,385.168l8.445,18.234l-29.515,29.5l-24.977-24.969 C125.056,402.262,142.751,394.652,156.384,385.168z M32.798,490.652v-9.406l9.422,9.406H32.798z M72.384,490.652l-38.031-38.031 c3.391-11.312,12.094-20.578,23.773-24.562l1.195-0.344c13.43-3.625,22.805-7.188,30.203-10.438l30.703,30.719l-42.664,42.656 H72.384z M107.727,490.652l27.586-27.562l27.585,27.562H107.727z M213.329,475.575l-15.086,15.077h-5.18l-42.664-42.656 l23.976-23.984l7.938,17.141c1.336,2.875,3.898,5.031,6.977,5.828c0.891,0.234,1.797,0.359,2.703,0.359 c2.211,0,4.398-0.703,6.234-2.031l15.102-10.875V475.575z M196.242,420.465l-25.078-54.125l2.289-17.047 c14.023,17.625,37.805,35.703,56.968,46.547L196.242,420.465z M277.336,490.652h-42.68V419.09l18.68-13.453 c0.969,0.172,1.867,0.281,2.656,0.297c0.789-0.016,1.688-0.125,2.656-0.297l18.688,13.453V490.652z M338.524,349.293 l2.297,17.047l-25.078,54.125l-34.188-24.625C300.727,384.996,324.508,366.918,338.524,349.293z M313.742,490.652l-15.094-15.078 v-41.141l15.109,10.875c1.828,1.328,4.016,2.031,6.234,2.031c0.906,0,1.812-0.125,2.703-0.359 c3.078-0.797,5.641-2.953,6.984-5.828l7.938-17.125l23.968,23.969l-42.655,42.656H313.742z M349.086,490.652l27.593-27.562 l27.562,27.562H349.086z M434.428,490.652l-42.671-42.656l30.702-30.719c7.406,3.25,16.781,6.812,30.203,10.438l1.203,0.344 c11.672,3.984,20.375,13.25,23.766,24.562L439.6,490.652H434.428z M479.178,490.652h-9.406l9.406-9.406V490.652z"></path><path d="M248.453,461.777c-4.172,4.172-4.172,10.938,0,15.094c4.164,4.156,10.914,4.156,15.086,0 c4.164-4.156,4.164-10.922,0-15.094C259.367,457.621,252.617,457.621,248.453,461.777z"></path><path d="M248.453,419.121c-4.172,4.156-4.172,10.906,0,15.094c4.164,4.156,10.914,4.156,15.086,0 c4.164-4.188,4.164-10.938,0-15.094C259.367,414.965,252.617,414.965,248.453,419.121z"></path></g></g></g>
	</symbol>

	<symbol id="manufacture" viewBox="0 0 488 488">
		<g><g><path d="M483.82,350.32l-24-112c-0.639-2.984-2.922-5.342-5.883-6.078l-61.844-15.469L364,188.687V63.752 c5.167-6.843,7.974-15.178,8-23.753c0.057-22.034-17.758-39.942-39.792-40c-12.846-0.033-24.923,6.121-32.445,16.534 L67.469,32.016l0.001,0.011c-26.461,0.245-47.712,21.894-47.467,48.355c0.125,13.492,5.933,26.307,15.998,35.294V376H12 c-4.416-0.003-7.997,3.575-8,7.991c0,0.003,0,0.006,0,0.009v88c-0.003,4.416,3.575,7.997,7.991,8c0.003,0,0.006,0,0.009,0h112 c4.416,0.003,7.997-3.575,8-7.991c0-0.003,0-0.006,0-0.009v-88c0.003-4.416-3.575-7.997-7.991-8c-0.003,0-0.006,0-0.009,0h-24 V118.42l200-44.444v114.711l-27.719,27.711l-61.273,7.664c-3.416,0.428-6.175,2.992-6.852,6.367l-24,120 c-0.709,3.538,1.038,7.113,4.266,8.727l48,24c3.953,1.977,8.76,0.374,10.737-3.579c1.01-2.019,1.12-4.371,0.302-6.476 l-14.445-37.18l21.328-57.984L317.695,248h28.609l67.351,29.938l21.328,57.984l-14.445,37.18 c-1.599,4.121,0.446,8.758,4.568,10.357c2.103,0.816,4.453,0.706,6.472-0.302l48-24 C482.843,357.524,484.588,353.888,483.82,350.32z M20,464v-52.524L53.425,464H20z M116,464H82.575L116,411.476V464z M109.425,392 L68,457.102L26.575,392H109.425z M52,376V125.2c10.34,3.734,21.66,3.734,32,0V376H52z M68,112c-17.673,0-32-14.327-32-32 s14.327-32,32-32s32,14.327,32,32C99.982,97.666,85.666,111.982,68,112z M111.876,99.385c8.122-18.259,4.024-39.643-10.273-53.605 l191.101-12.736C292.265,35.338,292.03,37.665,292,40c0.044,6.395,1.641,12.683,4.653,18.324L111.876,99.385z M332,16 c13.255,0,24,10.745,24,24s-10.745,24-24,24s-24-10.745-24-24C308.014,26.751,318.751,16.014,332,16z M348,76.609V184h-32V76.609 C326.188,81.13,337.812,81.13,348,76.609z M442.961,359.57L451,338.898c0.703-1.817,0.719-3.828,0.047-5.656l-23.539-64 c-0.745-2.031-2.281-3.675-4.258-4.555l-72-32c-1.024-0.453-2.131-0.687-3.25-0.688h-32c-1.119,0-2.226,0.234-3.25,0.688l-72,32 c-1.977,0.88-3.513,2.523-4.258,4.555l-23.539,64c-0.672,1.828-0.656,3.839,0.047,5.656l8.039,20.672l-23.992-11.992 l21.664-108.352l58.281-7.289c1.765-0.22,3.407-1.023,4.664-2.281L311.313,200h41.375l29.656,29.656 c1.027,1.024,2.312,1.751,3.719,2.102l59.156,14.797l21.664,101.063L442.961,359.57z"></path></g></g><g><g><circle cx="68" cy="80" r="16"></circle></g></g><g><g><path d="M406.758,336.532l-9.594-4.234c-0.328-1.148-0.672-2.273-1.047-3.375l5.352-9.227c1.414-2.443,1.438-5.449,0.063-7.914 c-2.939-5.24-6.444-10.142-10.453-14.617c-1.937-2.184-4.915-3.132-7.758-2.469l-10.078,2.305 c-0.852-0.656-1.719-1.297-2.602-1.914l-0.984-10.727c-0.293-3.153-2.415-5.837-5.414-6.852l-15.141-5.094 c-3.083-1.036-6.486-0.104-8.609,2.359l-7.102,8.234h-2.781l-7.086-8.227c-2.121-2.466-5.525-3.402-8.609-2.367l-15.148,5.094 c-3.003,1.011-5.128,3.697-5.422,6.852l-0.984,10.727c-0.883,0.625-1.75,1.266-2.594,1.914l-10.086-2.305 c-2.843-0.66-5.819,0.287-7.758,2.469c-4.005,4.475-7.51,9.374-10.453,14.609c-1.375,2.467-1.351,5.476,0.063,7.922l5.352,9.227 c-0.375,1.102-0.719,2.227-1.047,3.375l-9.594,4.234c-2.902,1.277-4.775,4.149-4.773,7.32v16.297 c-0.002,3.171,1.871,6.043,4.773,7.32l9.594,4.234c0.328,1.148,0.672,2.273,1.047,3.375l-5.352,9.227 c-1.577,2.721-1.415,6.114,0.414,8.672l9.438,13.188c1.872,2.634,5.15,3.875,8.297,3.141L290.758,407 c0.852,0.656,1.719,1.297,2.602,1.914l0.984,10.727c0.293,3.153,2.415,5.837,5.414,6.852l15.141,5.094 c3.083,1.037,6.486,0.105,8.609-2.359l7.102-8.234h2.781l7.086,8.227c2.123,2.464,5.525,3.399,8.609,2.367l15.148-5.094 c3.003-1.011,5.128-3.697,5.422-6.852l0.984-10.727c0.883-0.625,1.75-1.266,2.594-1.914l10.086,2.305 c2.843,0.664,5.821-0.284,7.758-2.469c4.005-4.474,7.507-9.373,10.445-14.609c1.381-2.465,1.361-5.476-0.055-7.922l-5.352-9.227 c0.375-1.102,0.719-2.227,1.047-3.375l9.594-4.234c2.902-1.277,4.775-4.149,4.773-7.32v-16.297 C411.533,340.681,409.66,337.809,406.758,336.532z M387.148,358.633c-2.318,1.019-4.014,3.077-4.57,5.547 c-0.651,2.929-1.545,5.798-2.672,8.578c-0.954,2.301-0.78,4.915,0.469,7.07l4.875,8.406c-0.977,1.492-2.021,2.953-3.133,4.383 l-9.141-2.094c-2.51-0.59-5.15,0.077-7.078,1.789c-2.214,1.945-4.587,3.701-7.094,5.25c-2.13,1.323-3.518,3.566-3.75,6.063 l-0.859,9.359l-5.109,1.719l-5.969-6.93c-1.52-1.765-3.733-2.78-6.062-2.781h-10.109c-2.325,0-4.536,1.013-6.055,2.773 l-5.984,6.938l-5.102-1.719l-0.859-9.359c-0.233-2.5-1.624-4.747-3.758-6.07c-2.506-1.544-4.877-3.297-7.086-5.242 c-1.929-1.711-4.568-2.378-7.078-1.789l-8.727,2l-3.336-4.656l4.664-8.039c1.249-2.155,1.422-4.769,0.469-7.07 c-1.127-2.78-2.021-5.65-2.672-8.578c-0.557-2.47-2.253-4.528-4.57-5.547l-8.383-3.695v-5.875l8.383-3.695 c2.318-1.019,4.014-3.077,4.57-5.547c0.651-2.929,1.545-5.798,2.672-8.578c0.954-2.301,0.78-4.915-0.469-7.07l-4.875-8.406 c0.977-1.492,2.021-2.953,3.133-4.383l9.141,2.094c2.51,0.585,5.148-0.082,7.078-1.789c2.214-1.945,4.587-3.701,7.094-5.25 c2.13-1.323,3.518-3.566,3.75-6.063l0.859-9.359l5.109-1.719l5.969,6.93c1.52,1.765,3.733,2.78,6.063,2.781h10.109 c2.325,0,4.536-1.013,6.055-2.773l5.984-6.938l5.102,1.719l0.859,9.359c0.233,2.5,1.624,4.747,3.758,6.07 c2.506,1.544,4.877,3.297,7.086,5.242c1.93,1.708,4.568,2.375,7.078,1.789l9.141-2.094c1.109,1.43,2.154,2.891,3.133,4.383 l-4.875,8.406c-1.249,2.155-1.422,4.769-0.469,7.07c1.127,2.78,2.021,5.65,2.672,8.578c0.557,2.47,2.253,4.528,4.57,5.547 l8.383,3.695l0,5.875L387.148,358.633z"></path></g></g><g><g><path d="M332,312c-22.091,0-40,17.909-40,40c0,22.091,17.909,40,40,40c22.091,0,40-17.909,40-40 C371.974,329.919,354.081,312.026,332,312z M332,376c-13.255,0-24-10.745-24-24s10.745-24,24-24s24,10.745,24,24 C355.986,365.249,345.249,375.986,332,376z"></path></g></g><g><g><rect x="436" y="472" width="16" height="16"></rect></g></g><g><g><rect x="468" y="472" width="16" height="16"></rect></g></g>
	</symbol>

	<symbol id="roulette" viewBox="0 -88 480 480">
		<g><path d="m392 0h-80c-36.210938.0585938-68.699219 22.273438-81.886719 56h-38.113281c-4.417969 0-8 3.582031-8 8v96c0 4.417969 3.582031 8 8 8h32v24h-216c-4.417969 0-8 3.582031-8 8v80c0 13.253906 10.746094 24 24 24s24-10.746094 24-24v-24h344c48.578125-.058594 87.941406-39.421875 88-88v-80c-.058594-48.578125-39.421875-87.9414062-88-88zm-192 152v-80h25.464844c-.273438 1.441406-.410156 2.902344-.601563 4.351562-.144531 1.046876-.328125 2.082032-.429687 3.144532-.273438 2.816406-.433594 5.65625-.433594 8.503906v64zm-184 56h16v16h16v-16h16v16h16v-16h16v16h16v-16h16v16h16v-16h16v16h16v-16h16v16h16v-16h16v32h-208zm16 72c0 4.417969-3.582031 8-8 8s-8-3.582031-8-8v-24h16zm432-112c-.042969 39.746094-32.253906 71.957031-72 72h-152v-152c.027344-3.261719.273438-6.519531.734375-9.753906.113281-.796875.234375-1.597656.363281-2.335938 5.613282-34.730468 35.722656-60.171875 70.902344-59.910156h80c39.746094.042969 71.957031 32.253906 72 72zm0 0"></path><path d="m352 40c-48.601562 0-88 39.398438-88 88s39.398438 88 88 88 88-39.398438 88-88c-.058594-48.578125-39.421875-87.941406-88-88zm0 160c-39.765625 0-72-32.234375-72-72s32.234375-72 72-72 72 32.234375 72 72c-.042969 39.746094-32.253906 71.957031-72 72zm0 0"></path><path d="m322.953125 80.113281 8.3125 13.671875c3.902344-2.371094 8.1875-4.054687 12.664063-4.96875l-3.203126-15.671875c-6.28125 1.277344-12.296874 3.632813-17.773437 6.96875zm0 0"></path><path d="m311.800781 89.015625c-16.167969 16.683594-20.367187 41.613281-10.5625 62.671875l14.503907-6.765625c-7.015626-15.039063-4.015626-32.847656 7.539062-44.761719zm0 0"></path></g>
	</symbol>

	<symbol id="call-center" viewBox="0 0 511.941 511.941">
		<g><path d="m477.535 182.115c-20.798-105.562-113.512-181.88-221.565-181.88-108.038 0-200.742 76.316-221.559 181.881-20.519 11.594-34.411 33.599-34.411 58.8v30.58c0 32.099 22.186 59.131 52.758 65.871-.946 17.32 12.882 31.749 30.032 31.749h41.93c6.19 7.19 12.896 13.803 20.045 19.802-30.379 15.012-53.156 42.535-61.981 75.625-6.35 23.812 11.578 47.163 36.236 47.163h273.9c24.638 0 42.585-23.333 36.236-47.164-2.044-7.661-4.853-15.116-8.348-22.16-1.84-3.709-6.34-5.223-10.052-3.385-3.71 1.842-5.226 6.342-3.385 10.053 3.051 6.149 5.504 12.663 7.291 19.356 3.805 14.286-6.942 28.3-21.743 28.3h-273.9c-14.788 0-25.555-14.001-21.743-28.298 8.366-31.368 31.084-57.02 61.073-69.17 57.993 39.637 135.967 40.662 195.265.017 11.87 4.8 22.629 11.693 32.015 20.531 3.015 2.84 7.763 2.697 10.602-.318 2.84-3.016 2.697-7.762-.318-10.602-8.61-8.108-18.232-14.786-28.709-19.951 18.963-15.971 34.542-36.017 45.324-58.67 6.662 5.55 15.155 8.755 24.032 8.755h7.882c37.22 0 67.5-30.28 67.5-67.5v-30.588c-.001-25.199-13.891-47.203-34.407-58.797zm-221.565-166.88c97.568 0 181.736 66.642 204.723 160.167-5.178-1.284-10.586-1.979-16.154-1.987-27.373-98.735-129.843-163.46-235.545-137.38-4.021.992-6.478 5.057-5.485 9.078.992 4.021 5.057 6.477 9.078 5.484 101.102-24.941 200.682 40.181 220.609 139.857 1.068 5.35-.746 10.711-4.854 14.343-8.688 7.682-22.294 3.375-25.076-7.745l-.989-3.946c-2.828-11.313-12.043-20.099-23.475-22.385l-11.354-2.271c-5.101-1.017-9.295-4.503-11.222-9.327l-6.831-17.092c-3.065-7.664-9.225-13.819-16.896-16.888l-20.519-8.213c-3.582-1.43-6.328-4.013-8.162-7.681-7.892-15.771-27.589-21.531-42.726-12.436l-7.839 4.704c-7.315 4.373-12.472 11.684-14.146 20.057l-1.881 9.403c-1.425 7.137-7.744 12.317-15.025 12.317h-6.72c-10.167 0-19.599 5.048-25.229 13.499l-13.071 19.603c-3.994 5.992-11.755 8.405-18.443 5.734l-2.395-.957c-13.897-5.575-29.573-.292-37.27 12.548l-7.175 11.938c-2.313 3.86-6.184 6.499-10.618 7.237l-5.949.99c-10.472 1.735-19.362-7.366-17.622-17.786 9.801-58.71 47.983-108.793 102.134-133.973 3.756-1.746 5.385-6.207 3.638-9.963-1.747-3.757-6.206-5.386-9.963-3.639-52.317 24.328-90.849 70.138-106.095 124.893-5.573.007-10.986.701-16.169 1.987 23.002-93.529 107.163-160.17 204.716-160.17zm-240.97 256.261v-30.58c0-27.717 21.594-50.471 48.84-52.358-.327 1.686-.644 3.374-.928 5.073-2.631 15.759 7.341 30.617 22.193 34.503-4.45 27.14-2.417 54.751 5.924 80.813h-8.24c-10.704 0-20.113 5.624-25.445 14.068-24.453-4.738-42.344-26.089-42.344-51.519zm365.258 82.45c-58.956 74.937-168.594 80.346-235.006 15.17h16.368c4.142 0 7.5-3.357 7.5-7.5s-3.358-7.5-7.5-7.5h-78.83c-8.315 0-15.08-6.77-15.08-15.09 0-8.315 6.765-15.08 15.08-15.08h130.634c-3.385 9.52-3.55 20.186.001 30.17h-17.695c-4.142 0-7.5 3.357-7.5 7.5s3.358 7.5 7.5 7.5h26.616c8.272 9.235 20.279 15.061 33.624 15.061 24.894 0 45.147-20.253 45.147-45.147s-20.253-45.146-45.147-45.146c-13.347 0-25.354 5.826-33.627 15.063h-115.495c-9.152-25.854-11.404-53.557-6.553-80.678l3.448-.574c8.781-1.463 16.442-6.684 21.016-14.315l7.175-11.938c3.89-6.49 11.809-9.158 18.832-6.342l2.405.962c13.243 5.285 28.59.515 36.491-11.345l13.072-19.603c2.844-4.27 7.61-6.818 12.748-6.818h6.72c14.409 0 26.915-10.254 29.734-24.379l1.88-9.4c.846-4.229 3.446-7.919 7.144-10.129l7.854-4.713c7.66-4.601 17.588-1.71 21.589 6.286 3.478 6.956 9.017 12.108 16.011 14.898l20.513 8.211c3.88 1.552 6.993 4.661 8.54 8.529l6.83 17.089c3.815 9.553 12.121 16.459 22.213 18.472l11.351 2.271c5.778 1.155 10.435 5.597 11.866 11.318l.989 3.947c3.404 13.604 14.454 19.833 19.875 21.429.654.217 1.31.41 1.969.582 10.015 46.275-.925 93.897-30.302 131.239zm-154.435-14.917c0-16.623 13.524-30.146 30.147-30.146s30.147 13.523 30.147 30.146-13.524 30.147-30.147 30.147-30.147-13.524-30.147-30.147zm271.118-67.529c0 28.948-23.551 52.5-52.5 52.5h-7.882c-6.96 0-13.534-3.274-17.768-8.698 10.702-29.315 13.275-61.187 7.074-92.597 14.406-3.805 24.872-18.033 22.212-34.153 27.257 1.876 48.864 24.636 48.864 52.36z"></path><path d="m284.881 239.081c-4.142 0-7.5 3.357-7.5 7.5 0 3.836-3.12 6.956-6.956 6.956s-6.956-3.12-6.956-6.956c0-4.143-3.358-7.5-7.5-7.5s-7.5 3.357-7.5 7.5c0 3.836-3.12 6.956-6.956 6.956s-6.956-3.12-6.956-6.956c0-4.143-3.358-7.5-7.5-7.5s-7.5 3.357-7.5 7.5c0 12.106 9.849 21.956 21.956 21.956 5.533 0 10.59-2.062 14.456-5.451 3.865 3.39 8.923 5.451 14.456 5.451 12.106 0 21.956-9.85 21.956-21.956 0-4.143-3.358-7.5-7.5-7.5z"></path><path d="m194.448 213.501c-11.726 0-21.265 9.539-21.265 21.265 0 4.143 3.358 7.5 7.5 7.5s7.5-3.357 7.5-7.5c0-3.454 2.811-6.265 6.265-6.265s6.265 2.811 6.265 6.265c0 4.143 3.358 7.5 7.5 7.5s7.5-3.357 7.5-7.5c0-11.726-9.54-21.265-21.265-21.265z"></path><path d="m317.493 213.501c-11.726 0-21.265 9.539-21.265 21.265 0 4.143 3.358 7.5 7.5 7.5s7.5-3.357 7.5-7.5c0-3.454 2.811-6.265 6.265-6.265s6.265 2.811 6.265 6.265c0 4.143 3.358 7.5 7.5 7.5s7.5-3.357 7.5-7.5c0-11.726-9.54-21.265-21.265-21.265z"></path></g>
	</symbol>

	<symbol id="dialog" viewBox="0 0 569.286 569">
		<g><path d="m66.382812 322.574219h37.933594v66.386719c0 5.234374 4.246094 9.480468 9.484375 9.480468 2.515625 0 4.925781-1 6.703125-2.777344l73.089844-73.089843h15.039062v-18.964844h-18.964843c-2.515625 0-4.929688 1-6.707031 2.777344l-59.679688 59.679687v-52.972656c0-5.238281-4.242188-9.484375-9.480469-9.484375h-47.417969c-26.175781-.03125-47.382812-21.242187-47.414062-47.417969v-189.664062c.03125-26.175782 21.242188-47.386719 47.414062-47.417969h303.46875c26.171876.03125 47.382813 21.242187 47.414063 47.417969v142.25h18.96875v-142.25c-.042969-36.644532-29.738281-66.34375-66.386719-66.382813h-303.464844c-36.644531.039063-66.3398432 29.738281-66.382812 66.382813v189.664062c.0429688 36.644532 29.738281 66.34375 66.382812 66.382813zm0 0"></path><path d="m502.617188 227.742188h-208.632813c-36.648437.042968-66.34375 29.738281-66.386719 66.382812v132.765625c.042969 36.648437 29.738282 66.34375 66.386719 66.386719h100.390625l73.085938 73.085937c3.707031 3.703125 9.710937 3.703125 13.414062 0 1.777344-1.777343 2.773438-4.191406 2.773438-6.703125v-66.382812h18.96875c36.644531-.042969 66.339843-29.738282 66.382812-66.386719v-132.765625c-.042969-36.644531-29.738281-66.339844-66.382812-66.382812zm47.417968 199.148437c-.03125 26.175781-21.242187 47.386719-47.417968 47.417969h-28.449219c-5.238281 0-9.484375 4.246094-9.484375 9.484375v52.972656l-59.679688-59.679687c-1.777344-1.777344-4.1875-2.777344-6.703125-2.777344h-104.316406c-26.175781-.03125-47.386719-21.242188-47.417969-47.417969v-132.765625c.03125-26.171875 21.242188-47.382812 47.417969-47.414062h208.632813c26.175781.027343 47.382812 21.242187 47.414062 47.414062v132.765625zm0 0"></path><path d="m75.867188 76.011719h189.667968v18.964843h-189.667968zm0 0"></path><path d="m303.464844 76.011719h56.902344v18.964843h-56.902344zm0 0"></path><path d="m75.867188 132.910156h284.5v18.964844h-284.5zm0 0"></path><path d="m208.632812 189.808594h151.734376v18.96875h-151.734376zm0 0"></path><path d="m75.867188 189.808594h94.832031v18.96875h-94.832031zm0 0"></path><path d="m75.867188 246.710938h132.765624v18.964843h-132.765624zm0 0"></path><path d="m284.5 294.125h132.765625v18.96875h-132.765625zm0 0"></path><path d="m455.199219 294.125h56.902343v18.96875h-56.902343zm0 0"></path><path d="m284.5 351.027344h227.597656v18.964844h-227.597656zm0 0"></path><path d="m284.5 407.925781h227.597656v18.964844h-227.597656zm0 0"></path></g>
	</symbol>

</svg>