<svg display="none" xmlns="http://www.w3.org/2000/svg"> 
	<symbol id="telegram" viewBox="0 0 24 24">
		<g>
			<circle cx="12" cy="12"  r="12">
			</circle>
			<path d="m5.491 11.74 11.57-4.461c.537-.194 1.006.131.832.943l.001-.001-1.97 9.281c-.146.658-.537.818-1.084.508l-3-2.211-1.447 1.394c-.16.16-.295.295-.605.295l.213-3.053 5.56-5.023c.242-.213-.054-.333-.373-.121l-6.871 4.326-2.962-.924c-.643-.204-.657-.643.136-.953z" fill="#fff"></path>
		</g>
	</symbol>

	<svg display="none" xmlns="http://www.w3.org/2000/svg"> 
	<symbol id="telegram_footer" viewBox="0 0 24 24">
		<g>
			<circle cx="12" cy="12"  r="12">
			</circle>
			<path d="m5.491 11.74 11.57-4.461c.537-.194 1.006.131.832.943l.001-.001-1.97 9.281c-.146.658-.537.818-1.084.508l-3-2.211-1.447 1.394c-.16.16-.295.295-.605.295l.213-3.053 5.56-5.023c.242-.213-.054-.333-.373-.121l-6.871 4.326-2.962-.924c-.643-.204-.657-.643.136-.953z" fill="#000"></path>
		</g>
	</symbol>

	<symbol id="whatsapp" viewBox="0 0 418.135 418.135">
		<g>
			<path d="M198.929,0.242C88.5,5.5,1.356,97.466,1.691,208.02c0.102,33.672,8.231,65.454,22.571,93.536 L2.245,408.429c-1.191,5.781,4.023,10.843,9.766,9.483l104.723-24.811c26.905,13.402,57.125,21.143,89.108,21.631 c112.869,1.724,206.982-87.897,210.5-200.724C420.113,93.065,320.295-5.538,198.929,0.242z M323.886,322.197 c-30.669,30.669-71.446,47.559-114.818,47.559c-25.396,0-49.71-5.698-72.269-16.935l-14.584-7.265l-64.206,15.212l13.515-65.607 l-7.185-14.07c-11.711-22.935-17.649-47.736-17.649-73.713c0-43.373,16.89-84.149,47.559-114.819 c30.395-30.395,71.837-47.56,114.822-47.56C252.443,45,293.218,61.89,323.887,92.558c30.669,30.669,47.559,71.445,47.56,114.817 C371.446,250.361,354.281,291.803,323.886,322.197z"></path><path d="M309.712,252.351l-40.169-11.534c-5.281-1.516-10.968-0.018-14.816,3.903l-9.823,10.008 c-4.142,4.22-10.427,5.576-15.909,3.358c-19.002-7.69-58.974-43.23-69.182-61.007c-2.945-5.128-2.458-11.539,1.158-16.218 l8.576-11.095c3.36-4.347,4.069-10.185,1.847-15.21l-16.9-38.223c-4.048-9.155-15.747-11.82-23.39-5.356 c-11.211,9.482-24.513,23.891-26.13,39.854c-2.851,28.144,9.219,63.622,54.862,106.222c52.73,49.215,94.956,55.717,122.449,49.057 c15.594-3.777,28.056-18.919,35.921-31.317C323.568,266.34,319.334,255.114,309.712,252.351z"></path>
		</g>
	</symbol>

	<symbol id="telephone" viewBox="0 0 16.933333 16.933334">
		<g id="layer1" transform="translate(0 -280.067)"><path id="path40973" d="m3.1636285 280.84799c-.2645304.008-.4969192.1476-.6914303.3421l-.3245273.32401 3.5170983 3.58117.5105612-.51056c.3076998-.30769.3076919-.81575 0-1.12345l-2.271694-2.27117c-.2200302-.22004-.4754881-.35023-.7400079-.3421zm-1.3911289 1.04024-.3725863.37208c-.60967143.60966-.60564976 1.40738-.60564976 1.7756 0 1.52362.60912106 4.15774 4.31033246 7.85895 3.7012192 3.70122 6.33584 4.31085 7.859469 4.31085.36825 0 1.165953.004 1.775601-.60565l.336931-.33693-3.517099-3.58118-.368969.36949c-.21866.21865-.380016.24479-.536919.22634-.15689-.0184-.319088-.10919-.437698-.20102-.6467791-.50074-1.6939576-1.21749-2.88458-2.40812-1.1906277-1.19063-1.9073813-2.23832-2.4081211-2.8851-.0918-.11861-.1825705-.27873-.2010199-.43563-.018494-.1569.0099-.32032.2284095-.53899l.3395134-.33951zm11.2039664 8.70542c-.203808 0-.40736.0771-.561205.23099l-.481623.48214 3.517614 3.58169.358635-.35863c.194498-.19449.333449-.42897.341579-.6935.008-.26452-.121549-.51997-.341579-.74001l-2.271697-2.27169c-.15385-.15385-.357915-.23099-.561724-.23099z" font-variant-ligatures="normal" font-variant-position="normal" font-variant-caps="normal" font-variant-numeric="normal" font-variant-alternates="normal" font-feature-settings="normal" text-indent="0" text-align="start" text-decoration-line="none" text-decoration-style="solid" text-decoration-color="rgb(0,0,0)" text-transform="none" text-orientation="mixed" white-space="normal" shape-padding="0" isolation="auto" mix-blend-mode="normal" solid-color="rgb(0,0,0)" solid-opacity="1" vector-effect="none"></path></g>
	</symbol>

	<symbol id="vk" viewBox="0 0 112.196 112.196">
		<g><g><circle id="XMLID_11_" cx="56.098" cy="56.098" r="56.098"></circle></g><path style="fill-rule:evenodd;clip-rule:evenodd;" d="M53.979,80.702h4.403c0,0,1.33-0.146,2.009-0.878 c0.625-0.672,0.605-1.934,0.605-1.934s-0.086-5.908,2.656-6.778c2.703-0.857,6.174,5.71,9.853,8.235 c2.782,1.911,4.896,1.492,4.896,1.492l9.837-0.137c0,0,5.146-0.317,2.706-4.363c-0.2-0.331-1.421-2.993-7.314-8.463 c-6.168-5.725-5.342-4.799,2.088-14.702c4.525-6.031,6.334-9.713,5.769-11.29c-0.539-1.502-3.867-1.105-3.867-1.105l-11.076,0.069 c0,0-0.821-0.112-1.43,0.252c-0.595,0.357-0.978,1.189-0.978,1.189s-1.753,4.667-4.091,8.636c-4.932,8.375-6.904,8.817-7.71,8.297 c-1.875-1.212-1.407-4.869-1.407-7.467c0-8.116,1.231-11.5-2.397-12.376c-1.204-0.291-2.09-0.483-5.169-0.514 c-3.952-0.041-7.297,0.012-9.191,0.94c-1.26,0.617-2.232,1.992-1.64,2.071c0.732,0.098,2.39,0.447,3.269,1.644 c1.135,1.544,1.095,5.012,1.095,5.012s0.652,9.554-1.523,10.741c-1.493,0.814-3.541-0.848-7.938-8.446 c-2.253-3.892-3.954-8.194-3.954-8.194s-0.328-0.804-0.913-1.234c-0.71-0.521-1.702-0.687-1.702-0.687l-10.525,0.069 c0,0-1.58,0.044-2.16,0.731c-0.516,0.611-0.041,1.875-0.041,1.875s8.24,19.278,17.57,28.993 C44.264,81.287,53.979,80.702,53.979,80.702L53.979,80.702z" fill="#000"></path></g>
	</symbol>
</svg>