<svg width="18" height="18" viewBox="0 0 18 18" fill="none" xmlns="http://www.w3.org/2000/svg">
	<path fill-rule="evenodd" clip-rule="evenodd" d="M13.0964 4.20447L13.0564 4.17336C12.9796 3.58935 12.7 2.9809 12.2635 2.46801C11.5547 1.63467 10.3991 1 8.85244 1C7.32799 1 6.25377 1.69512 5.61999 2.5569C5.32437 2.95557 5.11311 3.41031 4.9991 3.89335C4.97835 3.98381 4.96174 4.07516 4.94933 4.16713L4.90133 4.20402C4.40177 4.59114 4.03511 5.06047 4.12222 5.5987C4.20577 6.1187 4.67599 6.43515 5.11333 6.62849C5.22444 6.67782 5.34444 6.72404 5.47199 6.76715C5.40773 7.26817 5.45096 7.77713 5.5988 8.26013C5.74664 8.74313 5.99569 9.18909 6.32937 9.5683C6.66305 9.94751 7.0737 10.2513 7.53396 10.4594C7.99423 10.6674 8.49355 10.7751 8.99866 10.7751C9.50378 10.7751 10.0031 10.6674 10.4634 10.4594C10.9236 10.2513 11.3343 9.94751 11.668 9.5683C12.0016 9.18909 12.2507 8.74313 12.3985 8.26013C12.5464 7.77713 12.5896 7.26817 12.5253 6.76715C12.6529 6.72404 12.7729 6.67826 12.884 6.62849C13.3213 6.43515 13.7911 6.1187 13.8751 5.5987C13.9622 5.06047 13.5955 4.59114 13.096 4.20402L13.0964 4.20447ZM5.86355 4.85425C5.80577 4.68803 5.79066 4.42091 5.86577 4.09069C5.93955 3.76847 6.09244 3.41513 6.33244 3.08802V4.33336C6.33244 4.45123 6.37926 4.56428 6.46261 4.64763C6.54596 4.73098 6.65901 4.77781 6.77688 4.77781C6.89476 4.77781 7.0078 4.73098 7.09115 4.64763C7.1745 4.56428 7.22133 4.45123 7.22133 4.33336V2.29334C7.58711 2.08534 8.02933 1.94001 8.55466 1.90001V3.44446C8.55466 3.56234 8.60149 3.67538 8.68484 3.75873C8.76818 3.84208 8.88123 3.88891 8.99911 3.88891C9.11698 3.88891 9.23003 3.84208 9.31338 3.75873C9.39672 3.67538 9.44355 3.56234 9.44355 3.44446V1.92756C9.96266 1.99734 10.4067 2.15779 10.7769 2.37201V4.33336C10.7769 4.45123 10.8237 4.56428 10.9071 4.64763C10.9904 4.73098 11.1035 4.77781 11.2213 4.77781C11.3392 4.77781 11.4522 4.73098 11.5356 4.64763C11.6189 4.56428 11.6658 4.45123 11.6658 4.33336V3.14135C12.1569 3.77069 12.272 4.4498 12.1338 4.85736C12.0995 4.95823 12.1027 5.06805 12.1426 5.16681C12.1825 5.26556 12.2566 5.3467 12.3513 5.39543C12.446 5.44417 12.5551 5.45726 12.6587 5.43233C12.7622 5.40739 12.8534 5.34609 12.9156 5.25959C13.0031 5.38181 13 5.4467 12.9982 5.45692C12.9924 5.49248 12.9244 5.63915 12.5249 5.81604C12.3516 5.89248 12.1453 5.96137 11.9138 6.02226L11.9031 6.02493C11.652 6.08982 11.3724 6.14493 11.0733 6.19026C10.5186 6.27025 9.95946 6.31627 9.39911 6.32804C9.01389 6.33766 8.62846 6.33351 8.24355 6.31559C7.80082 6.29578 7.35937 6.25365 6.92088 6.18937C6.6231 6.14493 6.34533 6.08982 6.09511 6.02493L6.08444 6.02226C5.87561 5.96974 5.67127 5.90079 5.47333 5.81604C5.07377 5.63915 5.00577 5.49248 4.99999 5.45692C4.99822 5.4467 4.9951 5.38181 5.08266 5.25959C5.14493 5.34648 5.23643 5.40803 5.34039 5.43293C5.44435 5.45784 5.5538 5.44444 5.64869 5.39519C5.74357 5.34593 5.81752 5.26414 5.85698 5.16478C5.89645 5.06543 5.89878 4.95518 5.86355 4.85425V4.85425ZM6.34222 6.9916C6.48977 7.02049 6.64266 7.04671 6.7991 7.07027C7.27377 7.14138 7.78488 7.18671 8.30488 7.20805C8.76839 7.22709 9.23249 7.22709 9.69599 7.20805C10.2133 7.18671 10.7227 7.14138 11.1951 7.07027C11.3529 7.04716 11.5071 7.02093 11.656 6.9916C11.6876 7.35967 11.6424 7.73029 11.5232 8.07997C11.4041 8.42965 11.2135 8.75075 10.9637 9.02292C10.7139 9.29509 10.4103 9.51238 10.0721 9.66103C9.73392 9.80968 9.36853 9.88644 8.99911 9.88644C8.62968 9.88644 8.26429 9.80968 7.92609 9.66103C7.5879 9.51238 7.28428 9.29509 7.03448 9.02292C6.78468 8.75075 6.59416 8.42965 6.47499 8.07997C6.35582 7.73029 6.31061 7.35967 6.34222 6.9916V6.9916Z" fill="currentColor"></path>
	<path fill-rule="evenodd" clip-rule="evenodd" d="M11.2222 10.9951C11.5147 11.0462 11.8124 11.1058 12.1111 11.1738C14.5302 11.7262 17 12.8307 17 14.3329V16.9996H1V14.3329C1 12.8307 3.46978 11.7262 5.88889 11.1738C6.18361 11.1066 6.48 11.0471 6.77778 10.9951V12.9996H11.2222V10.9951V10.9951ZM5 12.3285C5.29067 12.2396 5.58889 12.1591 5.88889 12.0867V13.8885H12.1111V12.0871C12.5613 12.1949 13.0063 12.3236 13.4444 12.4729V16.1107H14.3333V12.8205C14.4622 12.8778 14.5867 12.9369 14.7058 12.9978C15.2111 13.2547 15.5858 13.5196 15.8231 13.7729C16.0564 14.0218 16.1111 14.2054 16.1111 14.3329V16.1107H1.88889V14.3329C1.88889 14.2054 1.94356 14.0218 2.17689 13.7729C2.41422 13.5196 2.78889 13.2547 3.29422 12.9978C3.54711 12.8689 3.82133 12.748 4.11111 12.6356V16.1107H5V12.3289V12.3285Z" fill="currentColor"></path>
</svg>