<svg viewBox="0 0 499.312 499.312" fill="#c19453" xmlns="http://www.w3.org/2000/svg"><path d="m475.3125 387.3125h-212.6875l192-192-195.3125-195.3125-109.542969 109.542969c-5.921875-5.269531-13.378906-8.734375-21.640625-9.742188-6.160156-14.648437-20.535156-24.488281-36.816406-24.488281-22.054688 0-40 17.945312-40 40 0 .273438.046875.535156.054688.800781-18.261719 3.703125-32.054688 19.863281-32.054688 39.199219s13.792969 35.496094 32.046875 39.199219c0 .265625-.046875.527343-.046875.800781 0 3.832031.710938 7.457031 1.71875 10.96875l-53.03125 53.03125 163.3125 163.3125v20.6875c0 4.40625-3.585938 8-8 8h-56c-13.234375 0-24 10.765625-24 24 0 13.230469 10.765625 24 24 24h296c13.230469 0 24-10.769531 24-24 0-13.234375-10.769531-24-24-24h-48c-4.417969 0-8-3.59375-8-8 0-4.410156 3.582031-8 8-8h128c13.230469 0 24-10.769531 24-24 0-13.234375-10.769531-24-24-24zm-280 44.6875-100.6875-100.6875 236.6875-236.6875 100.6875 100.6875zm-160-276.6875c0-11.578125 8.238281-21.257812 19.65625-23.503906 3.382812 7.429687 8.953125 13.832031 16.207031 18.0625l8.0625-13.824219c-7.359375-4.277344-11.925781-12.230469-11.925781-20.734375 0-13.234375 10.765625-24 24-24 7.945312 0 15.121094 3.917969 19.519531 10.09375-9.191406 3.042969-17.183593 9.296875-22.160156 17.898438l13.839844 8.007812c4.289062-7.402344 12.25-12 20.800781-12 13.230469 0 24 10.765625 24 24 0 6-2.304688 11.777344-6.480469 16.273438l-5.71875 6.148437 6.421875 5.410156c3.671875 3.085938 5.777344 7.519531 5.777344 12.167969 0 8.824219-7.175781 16-16 16 0-6.761719-1.71875-13.441406-4.96875-19.320312l-14 7.742187c1.945312 3.523437 2.96875 7.523437 2.96875 11.578125 0 13.230469-10.769531 24-24 24-13.234375 0-24-10.769531-24-24 0-.304688.101562-.601562.113281-.90625 6.773438-1.40625 13.132813-4.484375 18.382813-9.132812l-10.59375-11.984376c-4.398438 3.878907-10.039063 6.023438-15.902344 6.023438-13.234375 0-24-10.769531-24-24zm25.609375 65.703125c7.34375 8.664063 18.167969 14.296875 30.390625 14.296875 16.480469 0 30.648438-10.03125 36.765625-24.296875 1.082031.113281 2.144531.296875 3.234375.296875 17.648438 0 32-14.351562 32-32 0-6.800781-2.191406-13.34375-6.175781-18.769531 4.007812-6.34375 6.175781-13.679688 6.175781-21.230469 0-6.03125-1.441406-11.703125-3.847656-16.839844l99.847656-99.847656 60.6875 60.6875-236.6875 236.6875-60.6875-60.6875zm414.390625 198.296875h-128c-13.234375 0-24 10.765625-24 24 0 13.230469 10.765625 24 24 24h48c4.414062 0 8 3.589844 8 8 0 4.40625-3.585938 8-8 8h-296c-4.417969 0-8-3.59375-8-8 0-4.410156 3.582031-8 8-8h56c13.230469 0 24-10.769531 24-24v-4.6875l16 16 51.3125-51.3125h228.6875c4.414062 0 8 3.589844 8 8 0 4.40625-3.585938 8-8 8zm0 0"/><path d="m451.3125 107.3125c26.472656 0 48-21.527344 48-48s-21.527344-48-48-48-48 21.527344-48 48 21.527344 48 48 48zm0-80c17.648438 0 32 14.351562 32 32s-14.351562 32-32 32-32-14.351562-32-32 14.351562-32 32-32zm0 0"/><path d="m363.3125 75.3125c13.230469 0 24-10.769531 24-24 0-13.234375-10.769531-24-24-24-13.234375 0-24 10.765625-24 24 0 13.230469 10.765625 24 24 24zm0-32c4.414062 0 8 3.589844 8 8 0 4.40625-3.585938 8-8 8-4.417969 0-8-3.59375-8-8 0-4.410156 3.582031-8 8-8zm0 0"/><path d="m331.3125 211.3125c-13.234375 0-24 10.765625-24 24 0 13.230469 10.765625 24 24 24 13.230469 0 24-10.769531 24-24 0-13.234375-10.769531-24-24-24zm0 32c-4.417969 0-8-3.59375-8-8 0-4.410156 3.582031-8 8-8 4.414062 0 8 3.589844 8 8 0 4.40625-3.585938 8-8 8zm0 0"/><path d="m251.3125 227.3125c-13.234375 0-24 10.765625-24 24 0 13.230469 10.765625 24 24 24 13.230469 0 24-10.769531 24-24 0-13.234375-10.769531-24-24-24zm0 32c-4.417969 0-8-3.59375-8-8 0-4.410156 3.582031-8 8-8 4.414062 0 8 3.589844 8 8 0 4.40625-3.585938 8-8 8zm0 0"/><path d="m155.3125 307.3125c-13.234375 0-24 10.765625-24 24 0 13.230469 10.765625 24 24 24 13.230469 0 24-10.769531 24-24 0-13.234375-10.769531-24-24-24zm0 32c-4.417969 0-8-3.59375-8-8 0-4.410156 3.582031-8 8-8 4.414062 0 8 3.589844 8 8 0 4.40625-3.585938 8-8 8zm0 0"/><path d="m235.3125 299.3125c-17.648438 0-32 14.351562-32 32s14.351562 32 32 32v-16c-8.824219 0-16-7.175781-16-16s7.175781-16 16-16 16 7.175781 16 16h16c0-17.648438-14.351562-32-32-32zm0 0"/><path d="m203.3125 163.3125c13.230469 0 24-10.769531 24-24 0-13.234375-10.769531-24-24-24-13.234375 0-24 10.765625-24 24 0 13.230469 10.765625 24 24 24zm0-32c4.414062 0 8 3.589844 8 8 0 4.40625-3.585938 8-8 8-4.417969 0-8-3.59375-8-8 0-4.410156 3.582031-8 8-8zm0 0"/><path d="m259.3125 107.3125c13.230469 0 24-10.769531 24-24 0-13.234375-10.769531-24-24-24-13.234375 0-24 10.765625-24 24 0 13.230469 10.765625 24 24 24zm0-32c4.414062 0 8 3.589844 8 8 0 4.40625-3.585938 8-8 8-4.417969 0-8-3.59375-8-8 0-4.410156 3.582031-8 8-8zm0 0"/><path d="m331.3125 123.3125v16c8.824219 0 16 7.175781 16 16s-7.175781 16-16 16-16-7.175781-16-16h-16c0 17.648438 14.351562 32 32 32s32-14.351562 32-32-14.351562-32-32-32zm0 0"/><path d="m45.652344 264.96875 11.3125-11.316406 11.316406 11.316406-11.316406 11.3125zm0 0"/><path d="m68.277344 287.597656 11.316406-11.3125 11.3125 11.3125-11.3125 11.3125zm0 0"/></svg>