<!-- icon666.com - MILLIONS vector ICONS FREE --><svg id="svg4364" viewBox="0 0 8.4666659 8.4666659"  xmlns="http://www.w3.org/2000/svg" xmlns:svg="http://www.w3.org/2000/svg"><path id="path8480" d="m11.980469 0a.99978506.99978506 0 0 0 -.833985.47265625l-.996093 1.62304685-1.0039066 1.625-.9960938 1.6230469-1.0039062 1.625a.99978506.99978506 0 0 0 .7519531 1.5195312l.1132813.0117188-3.8105469 5.458984a.99978506.99978506 0 0 0 .640625 1.558594l2.7832031.507813-.5683594 1.646484a.99978506.99978506 0 0 0 .5351563 1.240234l-.8515625 4.525391a.99978506.99978506 0 0 0 .9433594 1.189453l5.8261722.199219a.99978506.99978506 0 0 0 .02539 0l-.373047 1.482422-.568359 2.222656-.560547 2.222656a.99978506.99978506 0 0 0 .966797 1.246094h3.498047 3.5 3.498047 3.507812a.99978506.99978506 0 0 0 .996094-.951172s.02339-.401931.037109-1.027344c.013678-.625412.020058-1.476897-.007812-2.390625-.027818-.913721-.092274-1.892326-.222656-2.783203-.130383-.890876-.292498-1.681231-.714844-2.363281-.342651-.553351-.766781-.987853-1.203125-1.320313-.436345-.332458-.88506-.56199-1.285156-.730468-.136555-.057503-.221454-.075969-.345704-.119141l.066407-.199219.36914-1.1875.367188-1.18164.369141-1.181641a.99978506.99978506 0 0 0 .007812-.007812c.848622-2.790178 1.307748-5.213511 1.292969-7.3300785-.014779-2.1165678-.52765-3.9566649-1.654297-5.4023437-1.126647-1.445679-2.819032-2.4438748-4.990234-3.04882818-2.171202-.60495331-4.843564-.84018292-8.105469-.77539062zm.546875 2.0449219c2.848399-.0200277 5.26651.1656358 7.027344.65625 1.88838.5261519 3.133602 1.3189192 3.941406 2.3554687.807804 1.0365503 1.219786 2.3759252 1.232422 4.1855469.012623 1.8096215-.390207 4.0596005-1.203125 6.7324215l-.369141 1.173829-.369141 1.1875-.36914 1.18164-.375 1.181641a.99978506.99978506 0 0 0 .833984 1.291015s.06582.010812.242188.052735c.176368.041915.433317.112431.708984.228515.275667.116081.576622.278336.849609.486328.272988.207995.519426.456654.716797.775391.117676.190039.322753.838674.435547 1.609375.112796.770701.172864 1.681204.199219 2.546875.026419.865664.019012 1.688942.005859 2.289063-.0003.013719.000307.007991 0 .021484h-2.539062-3.498047-3.5-2.214844l.251953-.974609.560547-2.228516.568359-2.222656.554688-2.169922 2.515625-2.724609a1.000355 1.000355 0 1 0 -1.46875-1.357422l-4.148437 4.488281-4.1992192-.148438.6914062-3.660156h2.394531a1.0002462 1.0002462 0 1 0 0-2.001953h-2.5996091l.4882812-1.423828a.99978506.99978506 0 0 0 -.7695312-1.314453l-2.3984375-.435547 3.2480468-4.6425782a.99978506.99978506 0 0 0 .1835938-.4667969l.244141.0234375 1.248047.125 1.248046.125a.99978506.99978506 0 1 0 .207032-1.984375l-1.25586-.125-1.248047-.1269532-.9140621-.0878906.1699219-.2734375.9960932-1.6230469.996094-1.625z" fill-rule="evenodd" transform="scale(.265)" font-variant-ligatures="normal" font-variant-position="normal" font-variant-caps="normal" font-variant-numeric="normal" font-variant-alternates="normal" font-feature-settings="normal" text-indent="0" text-align="start" text-decoration-line="none" text-decoration-style="solid" text-decoration-color="rgb(0,0,0)" text-transform="none" text-orientation="mixed" white-space="normal" shape-padding="0" isolation="auto" mix-blend-mode="normal" solid-color="rgb(0,0,0)" solid-opacity="1" vector-effect="none" paint-order="fill markers stroke" fill="#c19453"></path></svg>