<!-- icon666.com - MILLIONS vector ICONS FREE --><svg id="Layer_1" viewBox="0 0 24 24" fill="#c19453" xmlns="http://www.w3.org/2000/svg" data-name="Layer 1"><path d="m3 21.5h6a.49971.49971 0 0 0 .5-.5v-5.5h5v5.5a.49971.49971 0 0 0 .5.5h6a.49971.49971 0 0 0 .5-.5v-6a.49971.49971 0 0 0 -.5-.5h-5.5v-5h5.5a.49971.49971 0 0 0 .5-.5v-6a.49971.49971 0 0 0 -.5-.5h-12a.49971.49971 0 0 0 -.5.5v5.5h-5.5a.49971.49971 0 0 0 -.5.5v12a.49971.49971 0 0 0 .5.5zm12.5-18h5v5h-5zm0 12h5v5h-5zm-6-12h5v5h-5zm0 6h5v5h-5zm-6 0h5v5h-5zm0 6h5v5h-5z"/></svg>