<svg id="Capa_1" enable-background="new 0 0 483.502 483.502" viewBox="0 0 483.502 483.502" xmlns="http://www.w3.org/2000/svg"><g><g id="_x34_8x48_px"><g><g><path d="m328.268 483.502c-44.782 0-89.863-20.592-118.651-54.278l15.194-12.995c25.789 30.288 66.873 48.38 107.156 47.181 24.89-.7 60.275-9.196 87.464-45.281 62.974-85.465-2.499-175.928-23.99-205.616-48.58-73.47-44.282-126.048-32.487-164.333-71.471 49.28-125.848 117.552-151.338 190.822l-18.892-6.597c29.788-85.865 97.06-165.032 184.624-217.311l25.39-15.094-10.995 27.389c-14.994 37.685-35.685 89.363 20.092 173.729 63.174 87.264 71.171 164.433 23.59 229.006-24.99 33.186-61.475 52.179-102.958 53.378-1.3 0-2.7 0-4.199 0z" fill="#c19453" style="fill= #a99e8a;"></path></g><g><g><path d="m328.268 433.522v-19.992c8.696 0 16.893-1.499 24.29-4.398l7.297 18.592c-9.796 3.899-20.391 5.798-31.587 5.798z" fill="#c19453" style="fill: #c19453;"></path></g><g><path d="m386.244 410.732-13.894-14.394c2.399-2.399 4.798-4.998 6.897-7.897 28.488-38.784 21.091-84.066-24.29-146.74l16.193-11.695c51.279 70.871 58.676 123.449 24.09 170.33-2.798 3.898-5.797 7.297-8.996 10.396z" fill="#c19453" style="fill: #c19453"></path></g></g><g><path d="m156.339 482.402-28.388-76.968c-5.698-15.594-17.993-27.789-33.486-33.486l-76.968-28.388 76.968-28.388c15.594-5.698 27.789-17.893 33.486-33.486l28.388-76.968 28.388 76.968c5.698 15.594 17.993 27.789 33.486 33.486l76.968 28.388-76.968 28.388c-15.594 5.698-27.789 17.993-33.486 33.486zm-81.067-138.843 26.089 9.596c21.091 7.797 37.585 24.29 45.381 45.381l9.596 26.089 9.596-26.089c7.797-21.091 24.29-37.585 45.381-45.381l26.089-9.596-26.089-9.596c-21.091-7.797-37.585-24.29-45.381-45.381l-9.596-26.089-9.596 26.089c-7.797 21.091-24.29 37.585-45.381 45.381z" fill="#c19453" style="fill: #c19453"></path></g></g></g></g></svg>