<!-- icon666.com - MILLIONS vector ICONS FREE --><svg id="Capa_1" enable-background="new 0 0 512 512" fill="#c19453" viewBox="0 0 512 512" xmlns="http://www.w3.org/2000/svg"><g><path d="m497.437 438.18c4.143 0 7.5-3.357 7.5-7.5v-183.962c0-11.539-9.388-20.927-20.927-20.927h-287.756c-11.539 0-20.927 9.388-20.927 20.927v244.355c0 11.539 9.388 20.927 20.927 20.927h287.756c11.539 0 20.927-9.388 20.927-20.927v-25.393c0-4.143-3.357-7.5-7.5-7.5s-7.5 3.357-7.5 7.5v25.394c0 3.268-2.659 5.927-5.927 5.927h-287.756c-3.268 0-5.927-2.659-5.927-5.927v-244.356c0-3.268 2.659-5.927 5.927-5.927h109.513v50.585c0 4.452 2.471 8.459 6.449 10.458 3.926 1.973 8.62 1.625 12.237-1.064l15.679-11.655 15.678 11.654c3.573 2.656 8.264 3.065 12.238 1.065 3.979-1.999 6.449-6.006 6.449-10.458v-50.585h109.513c3.268 0 5.927 2.659 5.927 5.927v183.962c0 4.142 3.357 7.5 7.5 7.5zm-137.94-153.361-12.384-9.206c-4.176-3.102-9.787-3.102-13.965.001l-12.382 9.205v-44.028h38.73v44.028z"/><path d="m311.75 388.04h56.764c4.143 0 7.5-3.357 7.5-7.5s-3.357-7.5-7.5-7.5h-56.764c-4.143 0-7.5 3.357-7.5 7.5s3.358 7.5 7.5 7.5z"/><path d="m311.75 418.01h56.764c4.143 0 7.5-3.357 7.5-7.5s-3.357-7.5-7.5-7.5h-56.764c-4.143 0-7.5 3.357-7.5 7.5s3.358 7.5 7.5 7.5z"/><path d="m285.475 332.35c-7.188 0-13.035 5.848-13.035 13.035v100.281c0 7.188 5.848 13.034 13.035 13.034h109.315c7.188 0 13.034-5.847 13.034-13.034v-100.281c0-7.188-5.847-13.035-13.034-13.035zm107.35 111.35h-105.385v-96.35h105.385z"/><path d="m210.734 159.396c3.532 2.039 7.647 2.581 11.589 1.525 3.94-1.056 7.233-3.583 9.273-7.115l4.191-7.26c.076-.13.244-.174.372-.101l24.06 13.891-6.203 10.743c-3.185 5.515-1.299 12.558 4.218 15.743l26.328 15.2c3.441 1.987 7.202 2.931 10.917 2.931 7.576 0 14.956-3.93 19.009-10.949l32.013-55.448c6.04-10.461 2.443-23.886-8.019-29.926l-26.328-15.2c-2.664-1.538-5.769-1.949-8.744-1.151-2.974.796-5.459 2.703-6.998 5.369l-6.205 10.748-24.06-13.891c-.032-.019-.098-.057-.127-.165s.009-.174.027-.206l4.198-7.271c2.04-3.533 2.582-7.648 1.526-11.589s-3.583-7.234-7.116-9.274l-56.391-32.558c-34.338-19.824-76.688-19.296-110.521 1.381l-59.914 36.618c-8.989 5.494-12.572 16.911-8.333 26.556l2.619 5.959c4.638 10.552 16.637 15.422 27.317 11.087l35.589-14.446c5.176-2.099 10.919-1.703 15.756 1.089l19.867 11.47-23.631 40.931c-2.071 3.587-.842 8.174 2.745 10.245 3.571 2.061 8.165.858 10.245-2.745l23.631-40.931 38.687 22.336-120.65 208.974-38.687-22.336 79.475-137.654c2.071-3.587.842-8.174-2.745-10.245s-8.174-.843-10.245 2.745l-80.726 139.819c-1.669 2.892-2.113 6.26-1.249 9.485s2.933 5.92 5.824 7.59l43.017 24.836c1.926 1.112 4.063 1.681 6.23 1.681 4.284 0 8.504-2.2 10.846-6.256l121.901-211.139zm96.93-51.236 23.318 13.462c3.303 1.908 4.438 6.129 2.528 9.436l-32.013 55.448c-1.906 3.3-6.14 4.43-9.436 2.528l-23.318-13.463zm-218.284-21.462-35.59 14.446c-3.105 1.261-6.594-.156-7.943-3.224l-2.619-5.959c-1.232-2.805-.191-6.124 2.423-7.722l59.916-36.618c29.141-17.811 65.619-18.266 95.198-1.189l56.391 32.558c.031.019.098.057.127.165.029.109-.009.175-.027.207l-4.198 7.271c-2.041 3.533-2.582 7.648-1.526 11.59 1.056 3.94 3.583 7.233 7.115 9.272l24.06 13.891-14.988 25.96-24.061-13.892c-7.292-4.207-16.651-1.7-20.861 5.592l-4.191 7.26c-.018.031-.056.098-.166.127-.108.029-.174-.009-.206-.027l-99.958-57.711c-8.871-5.122-19.404-5.848-28.896-1.997z"/><path d="m388.061 141.297c0 4.143 3.357 7.5 7.5 7.5h55.431c4.143 0 7.5-3.357 7.5-7.5s-3.357-7.5-7.5-7.5h-55.431c-4.143 0-7.5 3.357-7.5 7.5z"/><path d="m377.911 91.188 39.195-39.195c2.929-2.93 2.929-7.678 0-10.607-2.93-2.928-7.678-2.928-10.607 0l-39.195 39.194c-2.929 2.93-2.929 7.678 0 10.607 2.931 2.929 7.678 2.928 10.607.001z"/><path d="m317.194 70.431c4.143 0 7.5-3.357 7.5-7.5v-55.431c0-4.143-3.357-7.5-7.5-7.5s-7.5 3.357-7.5 7.5v55.431c0 4.142 3.357 7.5 7.5 7.5z"/></g></svg>