<svg display="none" xmlns="http://www.w3.org/2000/svg"> 
	<symbol id="telegram" viewBox="0 0 24 24">
		<g>
			<circle cx="12" cy="12"  r="12">
			</circle>
			<path d="m5.491 11.74 11.57-4.461c.537-.194 1.006.131.832.943l.001-.001-1.97 9.281c-.146.658-.537.818-1.084.508l-3-2.211-1.447 1.394c-.16.16-.295.295-.605.295l.213-3.053 5.56-5.023c.242-.213-.054-.333-.373-.121l-6.871 4.326-2.962-.924c-.643-.204-.657-.643.136-.953z" fill="#fff"></path>
		</g>
	</symbol>

	<symbol id="vk" viewBox="0 0 512 512">
		<g>
			<path d="m0 245.333c0-115.651 0-173.477 35.928-209.405s93.754-35.928 209.405-35.928h21.333c115.651 0 173.477 0 209.405 35.928 35.929 35.928 35.929 93.754 35.929 209.405v21.333c0 115.651 0 173.477-35.929 209.405-35.927 35.929-93.753 35.929-209.404 35.929h-21.333c-115.651 0-173.477 0-209.405-35.928-35.929-35.928-35.929-93.754-35.929-209.405z"></path><path clip-rule="evenodd" d="m138.676 160h-37.342c-10.669 0-12.803 5.022-12.803 10.558 0 9.889 12.66 58.933 58.946 123.798 30.858 44.298 74.333 68.31 113.894 68.31 23.737 0 26.673-5.333 26.673-14.52v-33.48c0-10.667 2.249-12.796 9.764-12.796 5.539 0 15.034 2.769 37.188 24.127 25.319 25.313 29.493 36.669 43.734 36.669h37.342c10.67 0 16.004-5.333 12.927-15.858-3.368-10.49-15.456-25.71-31.497-43.75-8.704-10.284-21.759-21.358-25.715-26.896-5.538-7.119-3.956-10.284 0-16.611 0 0 45.496-64.075 50.243-85.827 2.373-7.911 0-13.724-11.293-13.724h-37.342c-9.494 0-13.872 5.022-16.246 10.558 0 0-18.989 46.276-45.89 76.336-8.704 8.701-12.66 11.47-17.408 11.47-2.373 0-5.809-2.769-5.809-10.678v-73.962c0-9.493-2.755-13.724-10.669-13.724h-58.68c-5.933 0-9.502 4.405-9.502 8.581 0 8.998 13.451 11.074 14.837 36.387v54.978c0 12.053-2.178 14.239-6.925 14.239-12.659 0-43.453-46.483-61.716-99.672-3.577-10.337-7.167-14.513-16.711-14.513z" fill="#fff"></path>
		</g>
	</symbol>

	<symbol id="whatsapp" viewBox="0 0 418.135 418.135">
		<g>
			<path d="M198.929,0.242C88.5,5.5,1.356,97.466,1.691,208.02c0.102,33.672,8.231,65.454,22.571,93.536 L2.245,408.429c-1.191,5.781,4.023,10.843,9.766,9.483l104.723-24.811c26.905,13.402,57.125,21.143,89.108,21.631 c112.869,1.724,206.982-87.897,210.5-200.724C420.113,93.065,320.295-5.538,198.929,0.242z M323.886,322.197 c-30.669,30.669-71.446,47.559-114.818,47.559c-25.396,0-49.71-5.698-72.269-16.935l-14.584-7.265l-64.206,15.212l13.515-65.607 l-7.185-14.07c-11.711-22.935-17.649-47.736-17.649-73.713c0-43.373,16.89-84.149,47.559-114.819 c30.395-30.395,71.837-47.56,114.822-47.56C252.443,45,293.218,61.89,323.887,92.558c30.669,30.669,47.559,71.445,47.56,114.817 C371.446,250.361,354.281,291.803,323.886,322.197z"></path><path d="M309.712,252.351l-40.169-11.534c-5.281-1.516-10.968-0.018-14.816,3.903l-9.823,10.008 c-4.142,4.22-10.427,5.576-15.909,3.358c-19.002-7.69-58.974-43.23-69.182-61.007c-2.945-5.128-2.458-11.539,1.158-16.218 l8.576-11.095c3.36-4.347,4.069-10.185,1.847-15.21l-16.9-38.223c-4.048-9.155-15.747-11.82-23.39-5.356 c-11.211,9.482-24.513,23.891-26.13,39.854c-2.851,28.144,9.219,63.622,54.862,106.222c52.73,49.215,94.956,55.717,122.449,49.057 c15.594-3.777,28.056-18.919,35.921-31.317C323.568,266.34,319.334,255.114,309.712,252.351z"></path>
		</g>
	</symbol>
</svg>